<?xml version="1.0" standalone="no"?>
<!DOCTYPE svg PUBLIC "-//W3C//DTD SVG 20010904//EN"
 "http://www.w3.org/TR/2001/REC-SVG-20010904/DTD/svg10.dtd">
<svg version="1.0" xmlns="http://www.w3.org/2000/svg"
 width="700.000000pt" height="250.000000pt" viewBox="0 0 700.000000 250.000000"
 preserveAspectRatio="xMidYMid meet">

<g transform="translate(0.000000,250.000000) scale(0.100000,-0.100000)"
fill="#000000" stroke="none">
<path d="M0 1250 l0 -1250 1750 0 1750 0 0 1250 0 1250 -1750 0 -1750 0 0
-1250z m895 321 c22 -10 48 -28 59 -39 18 -21 18 -22 -5 -41 -27 -23 -39 -26
-39 -10 0 5 -21 19 -46 31 -95 42 -194 -5 -194 -92 0 -54 34 -89 115 -119 106
-38 135 -54 165 -87 91 -105 4 -271 -148 -282 -77 -5 -135 12 -183 55 l-39 35
24 19 c31 25 38 24 66 -6 50 -53 156 -56 210 -5 25 23 30 36 30 75 0 60 -32
93 -116 119 -147 46 -194 90 -194 184 0 80 36 134 110 166 48 21 136 20 185
-3z m-485 -311 l0 -310 -35 0 -35 0 0 310 0 310 35 0 35 0 0 -310z m944 69
c55 -132 102 -242 106 -244 3 -2 52 105 107 238 l101 242 51 3 51 3 0 -310 0
-311 -35 0 -35 0 -2 256 -3 256 -107 -253 c-83 -198 -110 -255 -126 -257 -16
-3 -35 34 -128 258 l-109 260 -3 -260 -2 -260 -35 0 -35 0 0 310 0 310 53 0
52 0 99 -241z m931 222 c55 -25 86 -62 92 -109 12 -91 -28 -159 -108 -183 -21
-7 -39 -14 -39 -17 0 -2 37 -65 82 -141 44 -75 83 -139 85 -143 2 -5 -14 -8
-35 -8 l-40 0 -84 143 -83 142 -53 3 -52 3 0 -145 0 -146 -35 0 -35 0 0 310 0
310 133 0 c107 0 140 -4 172 -19z m469 -222 c55 -132 102 -242 106 -244 3 -2
52 105 107 238 l101 242 51 3 51 3 0 -310 0 -311 -35 0 -35 0 -2 256 -3 256
-107 -253 c-83 -198 -110 -255 -126 -257 -16 -3 -35 34 -128 258 l-109 260 -3
-260 -2 -260 -35 0 -35 0 0 310 0 310 53 0 52 0 99 -241z"/>
<path d="M2050 1405 l0 -105 68 0 c131 1 192 33 192 104 0 73 -58 106 -187
106 l-73 0 0 -105z"/>
<path d="M4307 2100 c-93 -24 -169 -87 -215 -179 -24 -50 -27 -67 -27 -161 0
-117 15 -161 79 -237 55 -63 126 -96 222 -101 104 -6 166 14 232 73 143 129
158 355 32 507 -65 78 -217 124 -323 98z m242 -89 c60 -22 84 -68 85 -165 1
-71 0 -73 -51 -149 -29 -42 -59 -90 -68 -107 -8 -16 -20 -30 -25 -30 -6 0 1
23 15 50 14 28 22 50 18 50 -3 0 4 12 18 28 l24 27 -30 -26 c-17 -15 -36 -24
-42 -22 -7 3 -13 0 -13 -7 0 -6 5 -8 10 -5 17 11 11 -15 -12 -48 -13 -18 -24
-34 -25 -36 -1 -2 -13 -1 -27 3 -18 4 -23 11 -19 26 7 27 21 34 38 20 12 -10
15 -10 15 2 0 8 -4 18 -10 24 -16 16 17 54 47 54 35 0 104 40 101 59 -2 9 3
15 11 13 19 -4 9 157 -11 169 -7 5 -10 9 -6 9 4 0 -3 11 -16 24 -30 33 -101
50 -190 44 -96 -6 -134 -28 -154 -88 -8 -25 -19 -46 -23 -48 -5 -2 -9 -13 -9
-25 0 -14 -10 -27 -26 -34 -25 -12 -26 -11 -10 6 9 10 21 34 27 53 12 44 46
95 80 120 50 37 188 42 278 9z m-215 -115 c-10 -8 -21 -12 -24 -10 -5 6 21 24
34 24 6 0 1 -6 -10 -14z m172 -7 c6 -5 16 -3 22 3 7 7 12 8 12 2 0 -6 -11 -17
-25 -24 -14 -7 -25 -17 -25 -22 0 -4 -4 -8 -9 -8 -5 0 -7 9 -4 19 3 14 -3 24
-24 35 l-28 15 35 -6 c19 -3 40 -10 46 -14z m-86 -71 c0 -13 -23 -5 -28 10 -2
7 2 10 12 6 9 -3 16 -11 16 -16z m-280 -25 c-1 -15 -30 -46 -37 -40 -3 4 2 16
12 27 19 21 25 24 25 13z m272 -88 c2 -24 -1 -30 -22 -36 -14 -4 -19 -7 -12
-8 17 -1 15 -21 -2 -21 -14 0 -14 30 -1 69 3 7 0 20 -6 27 -6 7 -8 18 -4 25
11 17 43 -21 47 -56z m-163 14 c67 -19 90 -33 77 -46 -4 -4 -10 -2 -14 4 -11
17 -58 33 -97 33 -18 0 -35 6 -38 13 -3 9 -9 9 -26 -1 -23 -13 -28 -3 -9 16 7
7 19 10 28 6 8 -3 44 -15 79 -25z m5 -51 c9 -12 16 -27 16 -32 0 -6 -7 0 -16
12 -15 22 -44 30 -44 12 0 -5 5 -10 10 -10 6 0 10 -7 10 -15 0 -9 -9 -15 -24
-15 -39 0 -38 -15 1 -34 45 -21 38 -32 -8 -12 -19 8 -42 17 -52 20 -14 4 -17
14 -15 46 2 24 8 40 16 40 12 0 16 -12 13 -40 -2 -13 -1 -13 9 0 9 13 11 13
20 0 8 -12 10 -10 10 11 0 45 29 54 54 17z m46 2 c0 -5 -2 -10 -4 -10 -3 0 -8
5 -11 10 -3 6 -1 10 4 10 6 0 11 -4 11 -10z"/>
</g>
</svg>
