<?xml version="1.0" standalone="no"?>
<!DOCTYPE svg PUBLIC "-//W3C//DTD SVG 20010904//EN"
 "http://www.w3.org/TR/2001/REC-SVG-20010904/DTD/svg10.dtd">
<svg version="1.0" xmlns="http://www.w3.org/2000/svg"
 width="113.000000pt" height="150.000000pt" viewBox="0 0 113.000000 150.000000"
 preserveAspectRatio="xMidYMid meet">

<g transform="translate(0.000000,150.000000) scale(0.100000,-0.100000)"
fill="#000000" stroke="none">
<path d="M0 1175 l0 -326 22 20 c12 12 30 23 40 27 10 3 18 10 18 16 0 6 3 8
7 5 3 -4 13 -1 20 5 9 7 53 13 106 14 51 1 76 0 57 -3 -19 -2 -39 -8 -45 -13
-5 -4 -28 -12 -50 -16 -22 -4 -46 -13 -53 -21 -7 -7 -19 -13 -26 -13 -7 0 -26
-11 -41 -24 -16 -14 -32 -23 -37 -20 -14 9 -9 -17 6 -32 24 -23 56 -18 56 10
0 24 16 36 51 36 10 0 19 5 19 11 0 20 34 38 72 39 21 0 55 7 76 15 22 9 51
14 65 11 15 -3 27 0 27 5 0 5 16 9 35 9 35 0 47 -13 23 -24 -7 -4 3 -4 22 -1
18 3 36 9 40 14 3 4 15 11 27 15 20 6 23 4 23 -20 0 -27 -40 -74 -62 -74 -6 0
-9 -3 -5 -6 11 -11 67 7 67 22 0 17 12 18 27 3 8 -8 13 -5 18 11 5 14 2 25 -6
30 -9 6 -9 12 4 24 22 23 25 21 29 -21 3 -32 7 -38 36 -45 17 -5 32 -13 32
-18 0 -6 7 -10 15 -10 25 0 17 29 -10 36 -36 9 -33 36 3 29 l27 -5 -27 11
c-16 6 -28 15 -28 20 0 13 14 11 29 -3 11 -10 14 -10 18 0 6 14 53 17 53 2 0
-5 11 -10 25 -10 16 0 25 -6 25 -15 0 -8 5 -15 10 -15 6 0 10 5 10 10 0 6 11
10 25 10 21 0 25 -5 25 -30 0 -26 4 -30 28 -31 16 0 21 -3 12 -6 -8 -3 -18
-11 -22 -17 -5 -8 -11 -7 -20 2 -16 16 -28 15 -28 -3 0 -10 10 -15 28 -15 45
0 73 11 70 28 -2 8 2 17 9 19 6 2 13 -6 15 -19 2 -17 8 -22 26 -20 17 3 22 -2
22 -18 0 -16 -4 -20 -19 -15 -24 7 -51 -4 -51 -21 0 -8 -4 -14 -10 -14 -18 0
-10 -29 10 -35 11 -4 20 -15 20 -27 0 -11 5 -18 13 -16 11 4 17 30 18 81 0 20
0 20 35 7 19 -7 30 -7 40 1 11 9 14 8 14 -5 0 -9 -8 -16 -19 -16 -12 0 -21 -9
-25 -26 -9 -35 -3 -39 34 -24 26 11 30 17 30 52 0 34 -6 46 -37 74 -20 19 -41
34 -45 34 -4 0 -8 7 -8 15 0 8 -3 14 -7 13 -13 -3 -63 24 -63 34 0 4 -3 7 -7
6 -17 -3 -84 15 -90 25 -11 18 105 0 142 -23 19 -12 35 -19 35 -16 0 3 9 -2
19 -11 32 -29 50 -43 56 -43 3 0 5 149 5 330 l0 330 -565 0 -565 0 0 -325z
m1031 265 c24 0 39 -5 43 -15 5 -13 -46 -15 -424 -15 -403 0 -430 1 -430 18 0
16 24 17 387 15 214 -2 404 -3 424 -3z m-921 -21 c0 -8 4 -8 13 -1 18 15 49 1
37 -18 -5 -8 -10 -11 -10 -7 0 5 -6 5 -12 0 -35 -21 -66 -8 -54 22 6 18 26 20
26 4z m45 -50 c4 -5 -3 -8 -14 -6 -28 4 -34 12 -11 14 11 1 22 -2 25 -8z m11
-32 c4 -4 -5 -7 -19 -7 -15 0 -27 4 -27 10 0 11 35 8 46 -3z m271 -34 c-3 -10
-5 -2 -5 17 0 19 2 27 5 18 2 -10 2 -26 0 -35z m220 0 c-3 -10 -5 -2 -5 17 0
19 2 27 5 18 2 -10 2 -26 0 -35z m-300 -5 c-3 -8 -6 -5 -6 6 -1 11 2 17 5 13
3 -3 4 -12 1 -19z m-50 -115 c-3 -10 -5 -4 -5 12 0 17 2 24 5 18 2 -7 2 -21 0
-30z m230 0 c-3 -10 -5 -4 -5 12 0 17 2 24 5 18 2 -7 2 -21 0 -30z m-70 5 c-3
-8 -6 -5 -6 6 -1 11 2 17 5 13 3 -3 4 -12 1 -19z m218 -116 c-3 -3 -11 0 -18
7 -9 10 -8 11 6 5 10 -3 15 -9 12 -12z m-128 -14 c-3 -8 -6 -5 -6 6 -1 11 2
17 5 13 3 -3 4 -12 1 -19z m533 -298 c0 -5 -2 -10 -4 -10 -3 0 -8 5 -11 10 -3
6 -1 10 4 10 6 0 11 -4 11 -10z"/>
<path d="M263 1423 c9 -2 25 -2 35 0 9 3 1 5 -18 5 -19 0 -27 -2 -17 -5z"/>
<path d="M363 1423 c9 -2 25 -2 35 0 9 3 1 5 -18 5 -19 0 -27 -2 -17 -5z"/>
<path d="M438 1423 c7 -3 16 -2 19 1 4 3 -2 6 -13 5 -11 0 -14 -3 -6 -6z"/>
<path d="M913 1423 c9 -2 23 -2 30 0 6 3 -1 5 -18 5 -16 0 -22 -2 -12 -5z"/>
<path d="M338 893 c-22 -6 -23 -19 -3 -27 21 -8 19 -26 -2 -27 -15 0 -15 -2 2
-8 28 -12 35 -5 35 35 0 19 -3 33 -7 33 -5 -1 -16 -3 -25 -6z"/>
<path d="M420 868 c0 -4 14 -8 30 -8 17 0 30 2 30 4 0 2 -13 6 -30 8 -16 3
-30 1 -30 -4z"/>
<path d="M760 856 c0 -16 22 -46 34 -46 12 0 5 22 -14 42 -18 19 -20 20 -20 4z"/>
<path d="M205 839 c-26 -6 -24 -7 18 -9 26 -2 52 -3 59 -4 6 -1 13 5 16 12 4
14 -35 14 -93 1z"/>
<path d="M416 824 c-11 -29 6 -35 92 -34 97 2 122 7 122 21 0 12 -89 9 -96 -3
-6 -9 -55 -11 -78 -2 -9 3 -16 12 -16 20 0 19 -16 18 -24 -2z"/>
<path d="M142 804 c-11 -12 -9 -14 7 -14 23 0 36 16 18 23 -6 2 -18 -2 -25 -9z"/>
<path d="M674 807 c-19 -22 10 -36 63 -32 26 2 57 7 68 11 19 8 19 8 -5 15
-14 4 -42 4 -62 2 -25 -4 -38 -2 -38 6 0 14 -12 13 -26 -2z"/>
<path d="M0 760 c0 -20 5 -30 15 -30 20 0 20 46 0 54 -11 4 -15 -2 -15 -24z"/>
<path d="M280 780 c-9 -6 -10 -10 -3 -10 6 0 18 -3 27 -6 11 -4 16 -1 16 10 0
18 -17 21 -40 6z"/>
<path d="M370 779 c0 -5 5 -7 10 -4 6 3 10 8 10 11 0 2 -4 4 -10 4 -5 0 -10
-5 -10 -11z"/>
<path d="M858 773 c6 -2 18 -2 25 0 6 3 1 5 -13 5 -14 0 -19 -2 -12 -5z"/>
<path d="M793 763 c-23 -9 -14 -21 20 -27 56 -11 65 -22 38 -45 -24 -21 -24
-21 -3 -21 12 0 22 4 22 9 0 5 11 12 25 15 25 6 36 36 13 36 -6 0 0 10 13 21
l24 22 -35 -7 c-18 -3 -37 -12 -41 -18 -5 -8 -14 -7 -33 5 -14 9 -27 17 -28
16 -2 0 -9 -3 -15 -6z"/>
<path d="M148 738 c9 -11 25 -29 35 -40 22 -23 22 -26 -5 -31 -13 -2 -9 -3 8
-2 18 2 36 0 40 -5 15 -13 63 -20 69 -10 4 6 -5 10 -19 10 -14 0 -26 4 -26 8
0 5 -11 15 -25 22 -28 15 -33 35 -10 44 32 12 13 26 -35 26 -50 0 -50 0 -32
-22z"/>
<path d="M411 733 c-37 -5 -71 -31 -54 -41 5 -4 13 -14 16 -22 4 -12 7 -10 12
6 8 27 68 49 92 35 16 -9 16 -10 -5 -11 -20 0 -21 -2 -11 -22 11 -20 13 -20
24 -5 6 9 15 14 18 10 4 -3 7 -1 7 5 0 8 25 12 75 12 60 0 75 -3 75 -15 0 -8
5 -15 11 -15 6 0 3 -7 -5 -16 -21 -20 -11 -36 18 -28 20 5 23 2 24 -25 0 -23
-4 -31 -16 -31 -14 -1 -14 -3 3 -13 21 -13 295 -18 295 -5 0 16 -59 25 -110
17 -59 -9 -65 -7 -57 15 4 9 14 12 26 9 12 -3 21 -1 21 5 0 5 11 12 25 14 14
3 25 1 25 -3 0 -5 11 -9 25 -9 16 0 25 -6 25 -15 0 -9 9 -15 25 -15 14 0 25
-4 25 -10 0 -5 9 -10 20 -10 11 0 20 5 20 10 0 6 -9 10 -20 10 -21 0 -40 27
-33 48 3 9 -13 12 -59 13 -55 2 -58 3 -23 8 32 5 41 11 43 29 3 18 -1 22 -21
22 -14 0 -27 -7 -31 -15 -3 -9 -18 -15 -35 -15 -16 0 -31 -6 -35 -15 -3 -8
-10 -15 -16 -15 -5 0 -10 7 -10 15 0 17 -16 21 -22 5 -1 -5 -18 -12 -35 -16
-26 -5 -33 -3 -33 9 0 8 -6 18 -12 20 -10 4 -10 6 0 6 17 1 15 31 -2 31 -8 0
-22 7 -30 16 -13 12 -43 16 -129 19 -61 2 -127 1 -146 -2z m369 -153 c0 -5 -7
-10 -15 -10 -8 0 -15 5 -15 10 0 6 7 10 15 10 8 0 15 -4 15 -10z"/>
<path d="M708 733 c7 -3 16 -2 19 1 4 3 -2 6 -13 5 -11 0 -14 -3 -6 -6z"/>
<path d="M250 710 c0 -5 5 -10 11 -10 5 0 7 5 4 10 -3 6 -8 10 -11 10 -2 0 -4
-4 -4 -10z"/>
<path d="M0 615 l0 -75 195 0 c174 0 224 6 183 23 -7 3 10 5 37 5 28 0 40 -3
28 -5 -47 -9 -22 -24 35 -21 51 3 57 5 54 23 -5 26 -20 35 -59 35 -29 0 -33 3
-33 28 0 33 -7 43 -25 35 -10 -3 -11 -11 -4 -30 5 -13 9 -28 9 -33 0 -11 -210
-11 -231 0 -9 5 -29 11 -45 14 -40 8 -84 27 -84 37 0 5 -7 9 -15 9 -8 0 -15 7
-15 15 0 8 -7 15 -15 15 -12 0 -15 -15 -15 -75z m510 -40 c0 -8 -4 -15 -10
-15 -5 0 -10 7 -10 15 0 8 5 15 10 15 6 0 10 -7 10 -15z"/>
<path d="M1106 655 c-19 -15 -19 -15 2 -15 13 0 22 6 22 15 0 18 0 18 -24 0z"/>
<path d="M166 235 c-13 -35 -7 -42 31 -36 27 5 39 12 42 26 2 15 0 17 -10 9
-19 -14 -38 -12 -48 4 -7 11 -10 10 -15 -3z"/>
<path d="M688 223 c7 -3 16 -2 19 1 4 3 -2 6 -13 5 -11 0 -14 -3 -6 -6z"/>
<path d="M730 190 c0 -6 37 -10 90 -10 53 0 90 4 90 10 0 6 -37 10 -90 10 -53
0 -90 -4 -90 -10z"/>
<path d="M130 158 c0 -5 10 -8 23 -9 12 0 32 -2 45 -3 12 -2 22 2 22 8 0 6
-19 11 -45 11 -25 0 -45 -3 -45 -7z"/>
<path d="M235 160 c-3 -5 -1 -10 4 -10 6 0 11 5 11 10 0 6 -2 10 -4 10 -3 0
-8 -4 -11 -10z"/>
</g>
</svg>
