<?xml version="1.0" standalone="no"?>
<!DOCTYPE svg PUBLIC "-//W3C//DTD SVG 20010904//EN"
 "http://www.w3.org/TR/2001/REC-SVG-20010904/DTD/svg10.dtd">
<svg version="1.0" xmlns="http://www.w3.org/2000/svg"
 width="576.000000pt" height="250.000000pt" viewBox="0 0 576.000000 250.000000"
 preserveAspectRatio="xMidYMid meet">

<g transform="translate(0.000000,250.000000) scale(0.100000,-0.100000)"
fill="#000000" stroke="none">
<path d="M3754 2377 c-10 -12 -24 -31 -30 -42 -6 -11 -16 -19 -23 -17 -6 1
-13 -3 -15 -10 -2 -7 -9 -32 -17 -56 -9 -31 -9 -46 -1 -54 6 -6 8 -16 5 -23
-3 -10 2 -12 16 -8 24 6 26 -4 7 -30 -12 -15 -16 -16 -28 -3 -13 12 -16 11
-26 -5 -8 -13 -9 -19 -1 -19 6 0 3 -7 -5 -16 -9 -8 -16 -22 -16 -30 0 -10 -8
-6 -25 12 -14 15 -25 22 -25 15 0 -6 -4 -11 -9 -11 -5 0 -5 15 -1 35 5 23 4
40 -5 52 -9 12 -10 22 -2 33 12 21 -19 74 -39 66 -8 -3 -13 -2 -13 2 3 21 -3
24 -17 6 -15 -19 -15 -18 -11 4 3 12 1 20 -4 16 -5 -3 -9 -14 -9 -24 0 -10 -9
-22 -20 -25 -11 -3 -20 -10 -20 -15 0 -5 -6 -7 -14 -4 -8 3 -16 -3 -19 -15 -3
-12 0 -21 6 -21 7 0 4 -7 -6 -14 -15 -12 -16 -14 -2 -20 8 -3 15 -11 15 -18 0
-9 -3 -8 -10 2 -7 12 -11 9 -20 -15 -7 -20 -17 -31 -29 -31 -11 0 -17 4 -15 8
8 13 -25 40 -42 34 -8 -3 -17 1 -20 9 -21 54 -64 -44 -64 -145 0 -48 5 -69 22
-93 13 -18 22 -38 20 -45 -2 -8 2 -20 9 -28 6 -8 9 -14 7 -14 -3 0 -2 -17 2
-39 6 -35 5 -38 -14 -34 -15 3 -17 2 -8 -5 11 -7 11 -12 -2 -25 -9 -8 -16 -22
-16 -29 0 -10 3 -9 10 2 7 12 12 12 21 3 10 -10 9 -17 -5 -32 -14 -15 -17 -32
-15 -70 3 -39 1 -47 -8 -39 -10 8 -13 1 -13 -30 0 -23 5 -44 12 -48 7 -5 8 -3
3 6 -6 9 -4 11 5 5 8 -5 10 -21 7 -49 -4 -28 -3 -35 3 -21 6 14 9 2 10 -45 0
-36 1 -90 2 -120 0 -30 0 -62 -2 -70 -2 -8 -2 -66 -2 -127 2 -112 2 -113 26
-113 22 0 27 -8 46 -74 27 -90 55 -121 108 -119 45 1 133 16 148 25 10 7 114
183 114 193 0 3 -94 5 -210 5 l-210 0 0 58 c1 105 19 194 54 267 28 56 56 90
139 170 134 130 158 176 165 315 4 95 4 99 -21 124 -24 24 -33 26 -107 26 -67
0 -83 -3 -100 -20 -11 -11 -20 -27 -20 -35 0 -12 -13 -15 -56 -15 -53 0 -55 1
-49 23 34 114 119 165 257 154 72 -6 111 -22 144 -59 42 -46 54 -83 54 -170 0
-164 -39 -244 -196 -409 -121 -128 -148 -173 -159 -266 l-7 -63 181 0 181 0 0
-26 c0 -25 3 -23 45 24 25 28 55 54 65 57 19 6 20 18 20 399 0 392 0 393 23
427 12 18 38 44 57 57 32 22 43 23 141 20 97 -3 109 -5 141 -30 68 -52 68 -50
68 -501 0 -262 -4 -416 -11 -434 -5 -15 -22 -40 -37 -56 -25 -26 -25 -27 -5
-27 26 0 57 41 72 95 14 51 15 786 1 834 -16 58 -52 100 -107 127 -47 23 -62
26 -141 23 l-88 -4 -11 58 c-6 32 -21 76 -32 98 -12 22 -21 48 -21 58 0 10
-12 24 -26 31 -14 8 -28 26 -31 42 -6 31 -23 48 -23 24 0 -22 -17 -20 -25 3
-9 29 -30 32 -51 8z m6 -171 c0 -6 3 -21 6 -33 4 -15 2 -23 -6 -23 -7 0 -10 7
-6 15 3 8 1 15 -4 15 -6 0 -10 -9 -10 -21 0 -11 -4 -18 -10 -14 -5 3 -7 12 -4
19 3 8 1 17 -5 21 -6 3 -11 14 -11 24 0 14 6 17 25 13 14 -2 25 -9 25 -16z
m-256 2 c-3 -4 -9 -8 -15 -8 -5 0 -9 4 -9 8 0 5 7 9 15 9 8 0 12 -4 9 -9z
m280 -80 c-3 -4 -9 -8 -15 -8 -5 0 -9 4 -9 8 0 5 7 9 15 9 8 0 12 -4 9 -9z
m-484 -392 c0 -3 -4 -8 -10 -11 -5 -3 -10 -1 -10 4 0 6 5 11 10 11 6 0 10 -2
10 -4z m-21 -68 c-7 -10 24 -48 34 -41 9 5 9 4 0 -8 -7 -9 -8 -20 -3 -28 11
-19 -10 -51 -34 -51 -17 0 -18 -5 -12 -62 13 -127 17 -235 6 -203 -11 34 -18
315 -8 360 4 17 7 34 7 39 1 5 4 7 7 4 3 -4 5 -8 3 -10z m58 -270 c-3 -7 -5
-2 -5 12 0 14 2 19 5 13 2 -7 2 -19 0 -25z"/>
<path d="M3280 1569 c0 -11 4 -18 10 -14 5 3 7 12 3 20 -7 21 -13 19 -13 -6z"/>
<path d="M4965 2323 c-14 -3 -26 -21 -39 -56 -22 -62 -56 -211 -56 -249 0 -33
-10 -35 -35 -8 -34 38 -96 53 -199 48 -87 -4 -100 -7 -138 -34 -49 -34 -84
-91 -94 -152 l-7 -42 77 0 c58 0 76 3 76 14 0 7 9 25 21 40 18 23 27 26 85 26
52 0 68 -4 85 -21 19 -19 21 -30 17 -108 -6 -125 -26 -162 -162 -301 -157
-160 -181 -214 -193 -422 l-6 -118 231 0 c223 0 232 -1 232 -19 0 -11 16 -42
36 -69 l37 -49 83 85 83 85 -26 20 c-14 11 -34 39 -44 61 -17 38 -19 73 -19
440 0 386 1 401 21 443 14 29 35 52 63 68 37 22 55 25 135 25 98 0 129 -10
168 -52 51 -55 53 -69 53 -480 0 -229 -4 -398 -10 -420 -6 -20 -25 -51 -42
-70 -32 -32 -32 -35 -33 -125 0 -108 8 -115 61 -55 l33 37 7 -43 c8 -51 16
-58 55 -42 25 11 29 18 27 43 -2 17 2 32 10 34 6 3 12 -3 12 -13 0 -22 9 -14
13 12 1 10 6 24 9 30 5 7 -1 10 -17 6 -26 -5 -32 7 -14 25 17 17 3 44 -17 36
-14 -5 -16 -2 -10 22 16 62 23 115 16 115 -10 0 -10 92 1 111 6 12 4 21 -6 29
-8 7 -15 28 -15 46 0 30 7 39 31 36 17 -3 29 65 32 185 3 95 1 131 -7 126 -6
-4 -5 1 3 11 8 9 14 32 13 51 -1 19 3 35 8 35 6 0 10 12 10 28 0 15 4 34 10
42 5 9 5 19 -2 27 -7 9 -7 13 1 13 6 0 11 7 11 15 0 8 4 15 10 15 5 0 6 7 3
17 -4 11 -3 14 5 9 7 -4 12 -1 12 8 0 9 9 33 20 55 12 21 22 59 23 85 2 25 6
49 10 53 10 10 -3 106 -17 118 -6 6 -19 23 -29 38 -10 15 -22 25 -27 22 -5 -3
-11 -1 -14 3 -7 12 -43 7 -89 -12 -46 -20 -108 -84 -123 -128 l-11 -33 -7 50
c-11 79 -25 100 -69 99 -46 -2 -74 -25 -89 -76 -18 -59 -28 -45 -28 40 0 42
-4 83 -8 89 -5 7 -29 16 -55 19 -36 5 -53 3 -74 -11 -15 -10 -40 -20 -55 -21
-24 -3 -28 0 -28 21 0 14 -3 24 -7 24 -5 -1 -17 -4 -28 -6z m-173 -315 c80
-44 111 -143 89 -283 -18 -116 -65 -196 -194 -332 -62 -65 -121 -136 -132
-158 -10 -22 -21 -68 -23 -102 l-4 -63 178 -2 179 -3 3 -47 3 -48 -230 0 -231
0 0 88 c0 179 33 248 191 409 141 143 159 181 159 325 0 80 -3 95 -22 115 -19
20 -31 23 -100 23 -70 0 -82 -3 -103 -25 -14 -13 -25 -29 -25 -35 0 -5 -22
-10 -51 -10 l-51 0 6 32 c12 60 74 122 139 139 58 15 173 3 219 -23z m65 -510
c-3 -8 -6 -5 -6 6 -1 11 2 17 5 13 3 -3 4 -12 1 -19z m-36 -143 c4 19 7 0 9
-50 3 -76 3 -78 10 -30 l7 50 2 -47 c3 -49 3 -104 2 -158 l-1 -31 -147 3 -148
3 3 45 c2 25 13 65 24 89 25 52 174 207 181 188 3 -6 6 -3 6 7 1 11 9 28 19
39 16 19 17 16 22 -59 4 -54 7 -70 11 -49z m739 -10 c0 -9 -6 -12 -15 -9 -8 4
-15 10 -15 15 0 5 7 9 15 9 8 0 15 -7 15 -15z"/>
<path d="M4733 1280 c0 -36 2 -50 4 -32 2 17 2 47 0 65 -2 17 -4 3 -4 -33z"/>
<path d="M1317 2036 c-50 -19 -85 -51 -108 -101 -17 -37 -19 -73 -19 -443 0
-377 1 -405 19 -440 41 -81 103 -112 218 -112 91 0 145 20 186 69 37 45 47 90
47 224 l0 117 -65 0 -65 0 0 -135 c0 -157 1 -155 -103 -155 -50 0 -70 5 -91
21 l-26 20 0 389 c0 447 -4 429 87 437 65 7 117 -10 132 -43 6 -14 11 -65 11
-114 l0 -90 61 0 61 0 -3 119 c-4 114 -5 121 -34 162 -43 60 -91 82 -189 86
-53 2 -94 -2 -119 -11z"/>
<path d="M1907 2036 c-48 -18 -83 -50 -108 -98 -18 -35 -19 -64 -19 -442 0
-262 4 -415 11 -433 30 -80 108 -123 224 -123 95 0 150 21 187 71 39 53 48 93
48 220 l0 119 -65 0 -65 0 0 -135 c0 -157 1 -155 -103 -155 -50 0 -70 5 -91
21 l-26 20 0 393 c0 380 1 394 20 411 25 22 106 31 152 16 47 -16 58 -44 58
-151 l0 -90 61 0 61 0 -4 113 c-4 137 -26 187 -98 226 -55 31 -183 40 -243 17z"/>
<path d="M2532 2043 c-7 -2 -17 -13 -22 -23 -9 -16 -180 -1019 -180 -1055 0
-12 13 -15 58 -15 l59 0 22 128 c12 70 26 131 30 135 4 4 61 6 127 5 l119 -3
17 -90 c9 -49 21 -108 25 -130 l8 -40 58 -3 c50 -3 57 -1 57 16 0 18 -164 991
-175 1038 -2 11 -16 26 -30 32 -25 12 -148 15 -173 5z m144 -390 c24 -142 45
-270 48 -285 l6 -28 -110 0 c-109 0 -110 0 -105 23 3 12 23 137 45 277 22 140
43 263 46 274 14 43 29 -16 70 -261z"/>
<path d="M60 1983 c0 -32 -9 -274 -20 -538 -11 -264 -20 -483 -20 -487 0 -5
27 -8 59 -8 l59 0 6 73 c3 39 13 257 22 482 9 226 18 412 20 414 2 2 6 2 8 0
2 -2 36 -206 75 -454 39 -247 73 -460 76 -472 5 -21 11 -23 64 -23 53 0 59 2
64 23 3 12 38 225 77 472 40 248 74 452 76 454 2 2 6 2 8 0 2 -2 11 -197 20
-434 9 -236 19 -454 22 -482 l5 -53 60 0 60 0 -6 103 c-7 133 -35 873 -35 937
l0 51 -122 -3 -122 -3 -51 -372 c-27 -204 -52 -374 -55 -377 -3 -3 -28 166
-55 375 l-50 379 -122 0 -123 0 0 -57z"/>
<path d="M932 1498 l3 -543 58 -3 57 -3 0 546 0 545 -60 0 -60 0 2 -542z"/>
<path d="M3020 1495 l0 -545 60 0 60 0 0 545 0 545 -60 0 -60 0 0 -545z"/>
<path d="M3982 1914 l-22 -15 0 -390 c0 -424 2 -442 56 -455 43 -11 132 1 154
21 19 18 20 30 20 417 0 470 8 438 -113 438 -49 0 -80 -5 -95 -16z m168 -24
c20 -20 21 -30 18 -406 -3 -329 -5 -386 -18 -394 -8 -5 -45 -10 -82 -10 -56 0
-69 3 -78 19 -6 13 -10 156 -10 397 0 437 -5 414 92 414 45 0 63 -5 78 -20z"/>
<path d="M5144 1922 c-31 -21 -34 -54 -34 -435 0 -462 -8 -432 119 -432 126 0
116 -36 116 434 0 473 8 441 -114 441 -42 0 -81 -4 -87 -8z m40 -64 c-7 -29
-16 -65 -19 -80 -3 -16 -10 -28 -16 -28 -18 0 -7 139 11 150 33 21 38 11 24
-42z m113 -370 c-2 -13 -4 -3 -4 22 0 25 2 35 4 23 2 -13 2 -33 0 -45z m-52
-138 c5 -42 3 -60 -9 -75 -14 -18 -15 -14 -16 65 0 93 14 99 25 10z"/>
<path d="M3200 1729 c0 -5 5 -7 10 -4 6 3 10 8 10 11 0 2 -4 4 -10 4 -5 0 -10
-5 -10 -11z"/>
<path d="M3202 1655 c1 -19 2 -35 3 -35 2 0 10 10 18 23 14 21 13 24 -4 35
-17 11 -18 9 -17 -23z"/>
<path d="M5550 1152 c0 -5 7 -9 15 -9 8 0 12 4 9 9 -3 4 -9 8 -15 8 -5 0 -9
-4 -9 -8z"/>
<path d="M3835 1049 c-71 -63 -220 -325 -335 -591 l-33 -77 -68 -21 c-76 -23
-103 -49 -134 -133 -27 -72 -12 -78 77 -29 91 50 149 57 346 43 83 -6 152 -7
165 -2 12 5 38 36 58 68 l37 59 -142 12 c-77 7 -171 12 -208 12 -38 0 -68 4
-68 9 0 18 159 341 213 433 102 173 129 167 61 -14 -68 -182 -71 -276 -7 -217
41 39 86 110 76 120 -6 6 3 52 23 122 37 126 44 221 18 231 -28 11 -43 6 -79
-25z"/>
<path d="M5185 951 c-102 -58 -233 -203 -251 -276 -14 -60 -85 -132 -118 -119
-33 13 -30 50 13 128 23 41 41 84 41 94 0 27 -34 67 -49 58 -6 -4 -63 -74
-127 -156 -63 -82 -119 -152 -124 -155 -5 -3 12 38 37 91 25 53 48 113 50 135
6 40 -8 69 -33 69 -26 0 -95 -73 -175 -187 -44 -62 -84 -111 -90 -108 -19 12
-7 52 36 119 52 79 57 106 21 106 -13 0 -31 -3 -40 -6 -21 -8 -70 -97 -92
-166 -38 -124 -178 -202 -200 -113 -5 19 2 39 27 78 51 81 71 124 73 159 1 27
-3 34 -21 36 -37 5 -78 -32 -117 -107 -45 -87 -54 -142 -32 -209 22 -66 56
-102 96 -102 42 0 79 28 125 95 21 30 40 55 42 55 1 0 9 -15 16 -32 17 -40 42
-62 61 -55 9 4 29 34 47 69 38 75 112 193 129 203 27 17 27 -15 -1 -93 -32
-92 -36 -134 -15 -151 24 -20 46 0 113 103 67 104 132 190 139 183 2 -2 -10
-40 -26 -86 -44 -121 -39 -181 17 -181 24 0 83 53 144 129 l34 43 32 -50 c58
-93 91 -83 184 59 28 44 52 79 53 79 1 0 0 -35 -2 -78 -3 -63 -1 -82 13 -95
21 -21 23 -21 62 3 50 30 168 189 152 205 -3 2 -27 -15 -52 -40 -48 -45 -82
-56 -105 -33 -19 19 -14 58 13 116 29 63 31 80 9 111 -16 22 -16 24 0 33 21
12 20 31 -2 51 -26 24 -50 21 -107 -12z m14 -177 c-83 -150 -164 -228 -183
-178 -14 35 -5 74 27 115 33 44 195 174 204 165 3 -3 -19 -49 -48 -102z"/>
<path d="M3967 883 c-20 -78 -16 -87 51 -98 l44 -7 -7 76 -7 76 40 0 c23 0 44
5 47 10 4 6 -22 10 -72 10 l-78 0 -18 -67z m68 13 c0 -14 -3 -22 -7 -20 -4 3
-8 17 -8 31 0 32 13 22 15 -11z"/>
<path d="M4194 920 c-24 -10 -47 -58 -42 -92 2 -18 10 -24 35 -26 27 -3 34 2
47 27 32 60 10 110 -40 91z"/>
<path d="M4730 170 c0 -100 3 -120 15 -120 11 0 15 12 15 45 0 45 0 45 35 45
43 0 85 37 85 75 0 14 -11 37 -25 50 -19 20 -34 25 -75 25 l-50 0 0 -120z m98
84 c43 -30 16 -94 -40 -94 -27 0 -28 1 -28 55 0 51 2 55 23 55 12 0 33 -7 45
-16z"/>
<path d="M4910 170 l0 -120 65 0 c37 0 65 4 65 10 0 6 -22 10 -50 10 l-50 0 0
45 0 45 45 0 c25 0 45 5 45 10 0 6 -20 10 -45 10 l-45 0 0 40 0 40 50 0 c38 0
50 4 50 15 0 12 -14 15 -65 15 l-65 0 0 -120z"/>
<path d="M5080 170 c0 -100 3 -120 15 -120 11 0 15 12 15 50 0 39 4 50 16 50
31 0 54 -21 65 -60 15 -50 44 -56 34 -8 -4 18 -13 42 -20 53 -11 18 -10 24 6
44 26 31 24 57 -6 86 -19 20 -34 25 -75 25 l-50 0 0 -120z m98 84 c12 -8 22
-22 22 -31 0 -26 -31 -53 -62 -53 -26 0 -28 2 -28 43 0 24 3 47 7 50 11 12 37
8 61 -9z"/>
<path d="M5270 200 c0 -62 5 -100 15 -120 14 -28 20 -30 69 -30 79 0 90 17 94
141 3 85 2 99 -12 99 -13 0 -16 -14 -16 -90 0 -83 -2 -93 -25 -115 -29 -30
-49 -31 -75 -5 -17 17 -20 33 -20 115 0 78 -3 95 -15 95 -12 0 -15 -17 -15
-90z"/>
</g>
</svg>
