<?xml version="1.0" standalone="no"?>
<!DOCTYPE svg PUBLIC "-//W3C//DTD SVG 20010904//EN"
 "http://www.w3.org/TR/2001/REC-SVG-20010904/DTD/svg10.dtd">
<svg version="1.0" xmlns="http://www.w3.org/2000/svg"
 width="640.000000pt" height="640.000000pt" viewBox="0 0 640.000000 640.000000"
 preserveAspectRatio="xMidYMid meet">

<g transform="translate(0.000000,640.000000) scale(0.100000,-0.100000)"
fill="#000000" stroke="none">
<path d="M3035 6353 c-878 -53 -1669 -442 -2234 -1098 -821 -953 -1002 -2304
-460 -3433 292 -609 759 -1102 1345 -1422 473 -257 960 -382 1504 -383 241 -1
375 10 590 49 1207 218 2193 1139 2495 2328 163 642 128 1303 -102 1911 -372
983 -1211 1722 -2231 1966 -285 68 -628 99 -907 82z m610 -93 c681 -103 1282
-405 1760 -885 483 -484 783 -1095 881 -1795 25 -176 25 -614 0 -790 -77 -551
-275 -1037 -596 -1465 -456 -608 -1105 -1022 -1847 -1179 -367 -77 -771 -86
-1148 -25 -885 144 -1676 681 -2150 1459 -73 119 -202 385 -248 510 -264 713
-264 1474 -1 2190 48 131 199 433 278 558 518 818 1366 1340 2342 1441 153 16
569 5 729 -19z"/>
<path d="M2680 6128 c-29 -15 -57 -40 -78 -72 -37 -56 -39 -89 -4 -94 16 -3
37 12 81 57 89 93 129 77 118 -47 -7 -73 -34 -135 -59 -140 -26 -5 -23 30 7
74 38 56 31 69 -35 69 -50 0 -55 -2 -60 -25 -3 -14 -13 -40 -21 -58 -14 -29
-17 -31 -29 -18 -16 20 -44 20 -60 1 -10 -12 -10 -25 -1 -62 15 -60 36 -93 60
-93 10 0 32 -7 49 -16 40 -19 42 -52 7 -98 -33 -43 -32 -64 3 -68 42 -5 41
-39 -3 -72 -38 -29 -43 -51 -21 -82 14 -18 16 -18 84 19 53 28 81 37 118 37
62 0 73 8 81 53 5 33 3 37 -21 43 -14 3 -49 1 -77 -6 -43 -10 -53 -10 -60 1
-16 26 -9 45 31 84 41 40 47 58 30 85 -8 12 -14 12 -45 -3 -43 -21 -41 -21
-49 -1 -7 20 19 64 37 64 18 0 72 132 87 211 11 61 10 71 -8 112 -32 72 -81
85 -162 45z m-24 -303 c8 -21 -6 -41 -17 -24 -12 19 -11 39 1 39 6 0 13 -7 16
-15z"/>
<path d="M2402 5890 c-67 -43 -79 -71 -44 -103 24 -22 50 -22 74 0 24 22 36 9
39 -44 3 -47 5 -44 -34 -61 -34 -15 -67 -67 -67 -108 0 -33 22 -60 55 -66 18
-3 20 -10 17 -60 -5 -69 4 -98 28 -98 38 0 81 113 94 245 4 51 4 55 -5 25 -37
-132 -51 -170 -59 -170 -6 0 -8 10 -5 23 24 113 32 212 16 221 -17 11 -20 94
-5 146 29 99 -4 115 -104 50z m58 -282 c0 -36 -14 -52 -29 -34 -9 11 -10 20
-1 35 14 28 30 27 30 -1z"/>
<path d="M3729 5905 c-75 -27 -99 -44 -99 -70 0 -24 31 -65 48 -65 5 0 30 6
55 14 25 7 48 11 51 8 9 -8 -55 -83 -88 -103 -17 -11 -44 -19 -60 -19 -16 0
-57 -5 -91 -11 -50 -9 -64 -15 -77 -37 -16 -28 -14 -51 6 -64 6 -5 81 -5 167
-1 108 4 166 2 189 -6 47 -16 72 7 68 63 l-3 41 -57 3 c-32 2 -58 6 -58 11 0
4 12 19 28 34 124 119 70 257 -79 202z"/>
<path d="M1689 5638 c-94 -113 -259 -384 -259 -428 0 -15 6 -20 25 -20 21 0
31 13 71 92 56 111 95 172 103 159 3 -5 15 9 25 30 11 22 50 69 88 104 71 67
78 83 52 109 -28 28 -51 18 -105 -46z"/>
<path d="M1459 5654 c-14 -38 -3 -62 31 -69 25 -6 30 -12 31 -38 0 -22 3 -27
7 -15 4 9 23 27 42 40 44 30 48 51 16 83 -19 19 -35 25 -71 25 -40 0 -47 -3
-56 -26z"/>
<path d="M4870 5568 c-6 -7 -33 -43 -61 -80 -27 -38 -53 -68 -58 -68 -4 0 -34
9 -67 21 -83 29 -96 29 -112 -4 -17 -35 -5 -52 51 -77 l39 -18 -31 -21 c-58
-41 -153 -73 -236 -80 l-80 -7 35 -22 c31 -21 44 -23 115 -18 44 2 99 12 123
22 23 9 44 15 47 13 2 -3 0 -34 -5 -69 -18 -120 -14 -145 26 -190 42 -46 62
-54 98 -40 l27 10 -21 40 c-26 50 -46 135 -54 222 -6 63 -5 67 20 87 30 23 74
27 103 9 15 -9 25 -7 52 8 19 11 35 27 37 36 3 17 -25 52 -49 60 -9 3 -2 18
24 48 44 51 53 80 37 109 -12 23 -44 28 -60 9z"/>
<path d="M1712 5454 c-23 -16 -71 -111 -73 -143 0 -9 -7 -3 -14 14 l-14 30 -1
-42 c0 -52 26 -120 51 -133 25 -14 29 -3 27 86 -2 65 2 87 20 122 45 84 58 30
17 -68 -19 -46 -23 -65 -15 -85 10 -27 24 -32 36 -14 4 8 14 -2 25 -24 23 -43
13 -80 -28 -114 -24 -19 -25 -25 -15 -47 19 -41 48 -33 67 19 l18 44 19 -25
c26 -33 62 -29 66 7 2 15 -5 32 -18 44 -27 25 -25 49 7 75 l28 22 5 -22 c4
-19 7 -20 17 -9 21 25 25 65 9 78 -20 16 -49 7 -91 -30 l-34 -30 -11 22 c-7
12 -10 38 -6 59 5 29 2 41 -14 55 -14 13 -20 31 -20 60 0 36 -13 65 -30 65 -3
0 -16 -7 -28 -16z"/>
<path d="M1621 5394 c0 -11 3 -14 6 -6 3 7 2 16 -1 19 -3 4 -6 -2 -5 -13z"/>
<path d="M2995 5339 c-898 -86 -1659 -736 -1884 -1612 -231 -892 127 -1829
895 -2342 255 -171 539 -282 864 -337 167 -29 471 -31 640 -5 545 84 1009 344
1358 762 441 526 603 1249 431 1918 -101 391 -297 726 -590 1013 -457 444
-1079 663 -1714 603z m550 -84 c431 -79 791 -257 1097 -545 530 -496 763
-1242 612 -1962 -81 -386 -281 -755 -564 -1039 -318 -319 -702 -517 -1155
-596 -153 -26 -530 -24 -685 5 -448 82 -848 294 -1150 609 -301 312 -487 679
-565 1113 -23 127 -31 435 -15 571 56 488 260 912 604 1255 335 333 742 535
1211 599 134 19 486 13 610 -10z"/>
<path d="M2505 4872 c-28 -10 -73 -30 -100 -46 -70 -41 -208 -183 -288 -297
-71 -100 -113 -147 -123 -136 -12 11 36 191 66 251 17 33 28 61 26 64 -12 12
-107 -48 -156 -98 -91 -93 -119 -164 -165 -415 -17 -97 -53 -196 -93 -260 -23
-35 -26 -37 -33 -20 -11 29 -11 150 1 219 5 33 8 62 6 64 -10 9 -67 -31 -100
-69 -102 -120 -110 -407 -21 -759 29 -114 39 -245 27 -360 -7 -67 -10 -79 -16
-55 -3 17 -31 107 -61 200 -62 193 -74 241 -75 305 l-1 45 -19 -24 c-38 -45
-53 -124 -47 -250 10 -206 67 -351 219 -551 115 -153 140 -194 178 -299 37
-101 37 -112 3 -69 -15 18 -71 79 -125 135 -53 56 -114 132 -135 168 -34 59
-39 64 -50 48 -19 -26 -16 -115 7 -175 45 -119 196 -276 328 -342 37 -18 132
-59 212 -91 80 -32 168 -69 195 -82 56 -29 215 -130 215 -138 0 -2 -26 7 -57
21 -90 40 -155 61 -335 109 -92 24 -186 54 -209 65 -22 12 -43 19 -47 16 -12
-13 21 -89 55 -123 45 -44 187 -113 308 -147 88 -26 160 -34 460 -55 122 -9
468 -69 497 -87 5 -3 -24 -22 -64 -43 -96 -48 -262 -161 -252 -170 5 -4 35
-17 68 -29 l59 -22 53 45 c64 55 159 113 236 145 l58 24 102 -51 c66 -33 126
-72 166 -108 l62 -57 70 27 c39 15 70 28 70 30 0 10 -232 157 -278 176 -29 12
-49 26 -45 30 5 5 98 26 208 48 165 33 235 42 400 51 110 5 229 17 265 24 249
55 440 168 440 261 l0 35 -39 -20 c-22 -11 -115 -39 -208 -64 -173 -46 -290
-84 -355 -117 -59 -30 -45 -14 34 39 96 65 166 99 348 172 202 81 252 107 333
177 84 72 140 140 180 218 26 50 31 72 32 132 0 102 -13 108 -61 27 -21 -37
-84 -115 -139 -173 -56 -58 -111 -119 -123 -135 -28 -36 -28 -26 2 60 36 107
66 159 176 305 55 73 116 166 135 204 101 208 125 482 52 595 l-22 35 -3 -35
c-5 -68 -35 -185 -77 -304 -23 -67 -49 -148 -56 -181 l-13 -60 -9 75 c-12 104
-2 271 22 355 70 253 84 546 32 685 -24 64 -70 124 -113 146 -16 8 -31 14 -33
12 -2 -2 1 -47 7 -99 8 -64 8 -114 2 -150 l-10 -54 -32 49 c-41 64 -77 174
-102 318 -11 65 -30 143 -41 173 -30 81 -94 171 -153 214 -46 34 -116 68 -116
55 0 -2 12 -28 26 -56 24 -47 74 -220 74 -256 0 -26 -55 33 -132 141 -167 234
-335 358 -487 357 -45 0 -131 -31 -131 -47 1 -4 44 -29 98 -55 77 -37 121 -68
217 -152 73 -64 169 -136 245 -183 139 -86 200 -137 235 -197 51 -90 41 -94
-38 -19 -87 83 -191 143 -201 117 -9 -24 12 -94 45 -145 44 -69 194 -208 277
-257 88 -52 168 -144 221 -252 34 -70 36 -82 39 -190 2 -63 1 -112 -2 -109
-15 15 -112 223 -137 294 l-27 80 -23 -50 c-53 -119 -31 -280 62 -453 67 -124
86 -182 100 -307 18 -163 -8 -291 -78 -384 -24 -31 -27 -32 -34 -15 -13 34
-10 156 8 265 16 101 16 112 -1 195 -9 49 -21 93 -26 98 -10 10 -36 -28 -62
-96 -16 -40 -22 -83 -26 -178 -3 -113 -1 -135 24 -230 46 -179 36 -273 -42
-397 -29 -45 -121 -123 -146 -123 -4 0 9 26 29 57 71 112 123 255 123 343 0
41 -18 110 -28 110 -4 0 -15 -22 -25 -50 -18 -50 -71 -133 -181 -285 -32 -44
-78 -122 -102 -174 -51 -110 -90 -151 -190 -203 -124 -65 -251 -105 -467 -147
-114 -23 -239 -50 -278 -61 l-71 -19 -141 33 c-78 19 -204 46 -279 60 -166 31
-232 52 -363 116 -142 69 -174 99 -235 227 -30 62 -87 156 -140 228 -49 67
-107 159 -129 205 l-39 84 -11 -40 c-31 -111 18 -292 119 -439 17 -25 27 -45
22 -45 -18 0 -99 58 -126 91 -47 55 -87 153 -93 228 -4 52 1 87 22 166 35 129
43 279 21 384 -17 80 -62 169 -78 153 -5 -5 -16 -46 -25 -92 -15 -72 -15 -95
-4 -179 7 -53 15 -117 18 -143 6 -52 -4 -158 -15 -158 -13 0 -54 68 -78 130
-32 77 -41 198 -25 311 16 109 39 176 94 274 71 126 90 193 91 310 0 83 -4
108 -23 150 l-23 50 -33 -90 c-18 -49 -56 -134 -83 -188 l-49 -98 -5 53 c-13
128 22 244 105 354 57 75 103 115 197 174 87 54 219 189 255 260 18 36 25 64
23 91 l-3 40 -55 -28 c-30 -15 -90 -61 -132 -102 -43 -40 -78 -68 -78 -62 0
25 52 113 88 149 20 20 100 76 177 124 89 55 182 124 255 188 92 82 134 111
212 149 54 25 97 50 98 54 0 4 -19 17 -42 27 -53 24 -127 25 -193 2z"/>
<path d="M2322 3539 c4 -746 4 -766 25 -840 63 -222 215 -436 400 -561 91 -61
244 -135 369 -178 l91 -31 114 42 c353 129 549 296 685 584 80 168 77 134 81
989 l4 758 -248 -5 c-358 -7 -468 -32 -620 -143 -21 -15 -24 -14 -60 15 -114
91 -253 121 -591 128 l-253 6 3 -764z m323 711 c272 -13 397 -42 507 -119 l54
-38 30 24 c109 90 267 125 617 138 l167 6 0 -54 0 -54 -67 -6 c-38 -4 -115 -7
-173 -7 -244 0 -441 -48 -544 -133 l-30 -24 -54 38 c-114 80 -236 107 -532
119 -118 5 -218 9 -222 10 -5 0 -8 25 -8 55 l0 55 33 0 c17 -1 118 -5 222 -10z
m114 -180 c193 -17 322 -56 403 -120 20 -17 40 -30 43 -30 3 0 23 13 43 30
109 86 322 130 640 130 l132 0 0 -45 0 -45 -87 0 c-139 0 -365 -18 -450 -36
-91 -18 -181 -56 -240 -101 -41 -31 -41 -31 -59 -11 -30 32 -173 96 -257 112
-85 18 -312 36 -449 36 l-88 0 0 45 0 45 128 0 c70 0 178 -5 241 -10z m66
-181 c152 -19 269 -59 345 -119 l35 -28 30 25 c109 89 269 126 603 139 l182 7
0 -40 0 -40 -192 -6 c-339 -10 -474 -44 -613 -151 -7 -5 -33 7 -70 33 -112 79
-252 108 -562 118 l-193 6 0 40 0 39 178 -6 c97 -4 213 -12 257 -17z m67 -183
c129 -23 208 -57 304 -130 8 -7 22 -1 44 18 111 93 313 136 643 136 l137 0 0
-452 c0 -479 -3 -517 -50 -640 l-21 -58 -743 0 -744 0 -21 49 c-43 102 -49
165 -51 551 -1 201 -2 407 -1 459 l1 94 208 -6 c117 -3 245 -12 294 -21z m28
-1356 c0 -83 -1 -90 -20 -90 -18 0 -20 7 -20 71 0 66 -1 70 -20 64 -14 -4 -20
-2 -20 9 0 18 27 35 58 36 21 0 22 -3 22 -90z m224 68 c42 -60 1 -150 -74
-160 -31 -4 -35 25 -5 30 23 5 45 21 45 32 0 5 -9 6 -20 3 -47 -12 -79 60 -43
99 23 26 78 24 97 -4z m226 7 c0 -10 -10 -15 -34 -15 -45 0 -56 -26 -15 -35
47 -11 66 -67 32 -98 -29 -25 -103 -27 -103 -3 0 10 13 16 38 18 29 2 37 7 37
23 0 14 -10 23 -32 30 -27 7 -33 14 -33 36 0 51 8 59 61 59 37 0 49 -4 49 -15z
m184 -1 c20 -20 20 -38 0 -55 -14 -11 -14 -13 0 -21 19 -11 21 -61 3 -76 -25
-21 -107 -19 -107 2 0 10 13 16 38 18 29 2 37 7 37 23 0 13 -8 21 -22 23 -28
4 -31 32 -4 32 19 0 35 23 24 34 -4 3 -19 6 -35 6 -27 0 -35 9 -21 23 12 13
72 7 87 -9z"/>
<path d="M2540 3240 c0 -11 -7 -23 -15 -26 -12 -5 -15 -26 -15 -100 l0 -94
695 0 695 0 0 94 c0 74 -3 95 -15 100 -8 3 -15 15 -15 26 0 20 -3 20 -665 20
-662 0 -665 0 -665 -20z m585 -40 c3 -5 1 -10 -4 -10 -6 0 -11 5 -11 10 0 6 2
10 4 10 3 0 8 -4 11 -10z m170 -40 c-1 -8 1 -20 6 -25 5 -7 0 -16 -12 -23 -12
-8 -19 -9 -19 -1 0 5 -4 8 -9 5 -16 -10 -18 43 -3 62 12 15 19 17 28 8 6 -6
10 -18 9 -26z m113 3 c-2 -29 1 -38 17 -44 14 -5 6 -7 -22 -6 -34 1 -43 5 -43
19 0 10 4 18 9 18 5 0 8 8 7 18 -3 16 10 32 27 32 5 0 7 -16 5 -37z m-646 -23
c-2 -24 -4 -45 -6 -47 -1 -1 -15 1 -32 5 -24 7 -30 14 -32 41 -2 20 1 31 6 27
6 -3 12 0 15 8 3 7 16 13 29 12 21 -1 23 -5 20 -46z m102 18 c-3 -4 -1 -8 5
-8 5 0 8 -8 6 -17 -2 -10 -4 -22 -4 -26 -1 -4 -13 -6 -28 -5 -20 2 -30 10 -34
28 -5 25 6 50 23 50 5 0 6 -4 3 -10 -3 -5 -1 -10 4 -10 6 0 11 8 11 18 0 14 2
15 9 2 6 -8 7 -18 5 -22z m146 18 c0 -8 5 -18 10 -21 6 -4 10 -3 9 2 -3 19 2
36 8 29 4 -4 8 -22 8 -40 0 -31 -2 -33 -38 -34 -36 -2 -37 -1 -31 25 4 15 7
33 7 40 0 7 6 13 14 13 7 0 13 -6 13 -14z m554 2 c-5 -9 -2 -9 9 1 15 12 17
10 17 -16 0 -33 -16 -53 -43 -53 -16 0 -18 5 -12 33 9 39 13 47 26 47 6 0 7
-6 3 -12z m-418 -12 c9 -9 10 -17 4 -21 -5 -3 -10 -17 -10 -31 0 -13 -5 -24
-11 -24 -6 0 -9 7 -5 15 7 18 -5 19 -24 3 -8 -7 -6 -2 5 11 11 14 14 21 8 17
-9 -5 -13 1 -13 18 0 29 23 35 46 12z m534 3 c0 -5 5 -7 10 -4 6 4 10 -9 9
-32 -1 -34 -2 -35 -9 -13 -4 14 -8 19 -9 12 -1 -7 -5 -10 -11 -7 -5 3 -10 2
-10 -4 0 -6 -7 -8 -15 -5 -11 5 -12 11 -4 25 5 11 7 24 4 29 -3 6 3 10 14 10
12 0 21 -5 21 -11z"/>
<path d="M3255 3150 c3 -5 8 -10 11 -10 2 0 4 5 4 10 0 6 -5 10 -11 10 -5 0
-7 -4 -4 -10z"/>
<path d="M2530 2825 l0 -175 70 0 70 0 0 150 0 150 105 0 105 0 0 -150 0 -150
70 0 69 0 3 148 3 147 183 3 182 2 0 -150 0 -150 70 0 70 0 0 150 0 150 100 0
100 0 0 -150 0 -150 75 0 75 0 0 153 c0 204 2 197 -75 197 -41 0 -65 -4 -68
-12 -4 -10 -6 -10 -6 0 -1 9 -41 12 -165 12 -122 0 -166 -3 -169 -12 -4 -10
-6 -10 -6 0 -1 9 -44 12 -180 12 -134 0 -181 -3 -184 -12 -4 -10 -6 -10 -6 0
-1 8 -21 12 -65 12 -42 0 -66 -4 -69 -12 -4 -10 -6 -10 -6 0 -1 9 -29 12 -105
12 -74 0 -106 -4 -109 -12 -4 -10 -6 -10 -6 0 -1 8 -21 12 -66 12 l-65 0 0
-175z"/>
<path d="M2530 2615 c0 -12 14 -15 70 -15 56 0 70 3 70 15 0 12 -14 15 -70 15
-56 0 -70 -3 -70 -15z"/>
<path d="M2880 2615 c0 -12 14 -15 70 -15 56 0 70 3 70 15 0 12 -14 15 -70 15
-56 0 -70 -3 -70 -15z"/>
<path d="M3390 2615 c0 -12 14 -15 70 -15 56 0 70 3 70 15 0 12 -14 15 -70 15
-56 0 -70 -3 -70 -15z"/>
<path d="M3730 2615 c0 -12 15 -15 75 -15 60 0 75 3 75 15 0 12 -15 15 -75 15
-60 0 -75 -3 -75 -15z"/>
<path d="M3074 2395 c-8 -21 3 -45 20 -45 20 0 29 16 21 40 -7 23 -33 27 -41
5z"/>
<path d="M1004 4880 c-12 -4 -35 -25 -53 -46 -31 -38 -39 -58 -61 -144 l-12
-45 -24 28 c-32 38 -39 71 -23 119 9 28 10 45 2 56 -16 26 -50 27 -63 2 -11
-20 -13 -20 -29 -6 -36 33 -121 8 -121 -35 0 -11 8 -22 18 -26 9 -3 34 -22 55
-41 34 -33 37 -41 37 -88 0 -44 3 -54 20 -59 11 -3 29 -4 39 0 31 10 75 -73
73 -138 -2 -83 22 -110 181 -201 51 -29 94 -29 117 0 18 21 6 39 -37 58 -56
25 -160 79 -180 94 -15 11 -16 16 -5 33 12 20 11 61 -4 124 -5 19 -4 19 9 3 8
-10 24 -18 36 -18 14 0 25 -9 31 -27 20 -57 26 -62 60 -48 11 4 19 -5 29 -30
16 -45 42 -43 56 2 6 18 14 35 17 38 4 4 26 -6 50 -22 75 -51 138 -86 132 -71
-3 7 -37 38 -76 68 -39 30 -78 66 -86 80 -33 53 -67 65 -81 28 -7 -20 -9 -17
-16 22 -8 52 -20 70 -45 70 -10 0 -25 11 -34 25 -18 28 -53 33 -62 10 -4 -8 1
-27 11 -41 18 -28 13 -59 -9 -51 -8 3 -17 1 -20 -6 -4 -7 -4 17 -2 53 5 101
62 190 120 190 59 -1 226 -190 226 -256 0 -9 -14 -29 -31 -45 -17 -16 -24 -26
-15 -23 9 3 23 1 30 -6 16 -12 53 1 68 24 26 39 -19 138 -107 234 -95 104
-160 137 -221 112z"/>
<path d="M5541 4833 c-42 -21 -58 -54 -43 -88 15 -32 28 -31 79 1 43 28 78 77
68 94 -9 15 -66 11 -104 -7z"/>
<path d="M5270 4783 c-39 -20 -47 -40 -28 -66 13 -17 16 -17 71 8 49 21 58 29
55 48 -4 29 -50 34 -98 10z"/>
<path d="M5650 4773 c-21 -8 -30 -24 -30 -57 0 -26 -3 -28 -28 -23 -15 3 -34
2 -42 -3 -16 -10 -18 -8 125 -62 44 -16 94 -38 112 -49 37 -23 67 -18 84 12 5
11 7 29 4 39 -7 22 -45 48 -45 30 0 -13 -33 -13 -104 1 l-57 12 36 29 c19 16
35 36 35 43 0 27 -52 42 -90 28z"/>
<path d="M5426 4717 c18 -31 43 -51 94 -74 100 -44 215 -151 195 -183 -10 -16
-77 -11 -124 10 -24 11 -46 18 -48 16 -3 -2 13 -22 36 -45 48 -48 98 -62 136
-37 83 54 -45 214 -239 300 -31 14 -54 20 -50 13z"/>
<path d="M5155 4640 c-11 -35 5 -59 69 -104 34 -25 70 -54 80 -65 17 -19 17
-20 -14 -36 -17 -9 -53 -19 -79 -22 -44 -5 -50 -3 -65 20 -11 16 -15 35 -10
53 l6 29 -25 -30 c-37 -44 -40 -73 -10 -103 22 -22 31 -24 91 -20 45 2 83 12
115 28 l49 24 29 -34 c16 -19 33 -48 37 -65 7 -24 14 -31 40 -33 26 -3 34 1
43 22 17 37 5 64 -57 134 l-57 64 60 -3 c33 -1 65 1 71 5 21 13 13 54 -15 81
-37 33 -53 32 -53 -5 0 -30 -8 -35 -50 -32 -8 0 -22 -4 -32 -9 -15 -8 -28 -3
-61 24 -58 47 -134 97 -146 97 -5 0 -13 -9 -16 -20z"/>
<path d="M5569 3853 c7 -25 15 -30 69 -41 34 -8 62 -17 62 -22 0 -4 -20 -24
-45 -44 -43 -35 -59 -76 -37 -90 4 -2 40 24 78 59 61 55 81 66 136 80 60 15
65 18 60 41 -5 28 0 28 -74 9 -57 -15 -62 -15 -152 10 -52 14 -96 25 -99 25
-3 0 -2 -12 2 -27z"/>
<path d="M506 3806 c-3 -11 -4 -22 -2 -24 2 -2 45 -11 95 -20 50 -8 91 -19 91
-22 0 -4 -45 -19 -101 -35 -81 -23 -103 -32 -112 -52 -5 -12 -8 -25 -6 -27 8
-8 299 -63 304 -58 3 3 5 13 5 23 0 17 -33 28 -140 45 -50 8 -59 20 -22 28 15
4 64 18 110 32 72 22 82 27 82 48 0 22 -8 25 -149 53 -148 30 -150 30 -155 9z"/>
<path d="M5845 3663 c-80 -10 -84 -15 -69 -92 5 -25 11 -31 28 -29 17 2 21 9
18 36 -2 31 0 33 25 30 37 -4 61 -46 48 -85 -22 -61 -143 -85 -190 -38 -30 29
-32 61 -5 90 12 13 17 28 13 43 -7 30 -19 28 -55 -8 -28 -28 -30 -35 -26 -81
7 -71 46 -110 117 -117 71 -7 116 5 156 39 37 33 50 73 41 124 -6 33 -50 97
-64 94 -4 -1 -20 -4 -37 -6z"/>
<path d="M460 3542 c0 -22 7 -30 31 -39 29 -11 30 -14 27 -65 -3 -51 -4 -53
-38 -64 -27 -9 -36 -18 -38 -38 -3 -24 -1 -26 20 -21 13 3 84 20 158 38 134
32 135 33 135 61 0 27 -7 31 -130 85 -180 79 -165 75 -165 43z m219 -118 c5
-5 -14 -11 -66 -23 l-43 -9 0 39 0 39 53 -21 c28 -11 54 -22 56 -25z"/>
<path d="M5745 3359 c-17 -4 -44 -22 -60 -39 -25 -27 -30 -39 -29 -81 0 -40 6
-55 29 -79 67 -70 237 -55 273 26 55 118 -66 216 -213 173z m124 -50 c56 -20
70 -83 25 -118 -20 -16 -41 -21 -83 -21 -64 0 -95 17 -105 55 -17 67 75 115
163 84z"/>
<path d="M440 3235 c0 -24 1 -24 97 -27 l96 -3 -94 -51 c-79 -42 -95 -55 -97
-77 l-3 -27 155 0 156 0 0 25 c0 24 -1 24 -101 27 l-100 3 100 53 c86 45 101
57 101 78 l0 24 -155 0 -155 0 0 -25z"/>
<path d="M5916 3039 c-3 -17 -6 -47 -6 -66 l0 -35 -87 6 c-49 4 -107 9 -130
13 -41 5 -43 4 -43 -21 0 -14 3 -26 8 -27 4 0 71 -6 149 -12 l143 -12 4 30 c3
16 7 58 10 93 6 60 5 62 -18 62 -18 0 -25 -7 -30 -31z"/>
<path d="M468 2970 c-25 -26 -29 -36 -24 -63 12 -61 36 -70 166 -63 148 8 158
11 152 42 -3 16 -10 23 -18 20 -7 -3 -63 -8 -124 -12 -89 -6 -114 -4 -120 6
-11 18 6 50 25 50 9 0 15 10 15 25 0 35 -34 33 -72 -5z"/>
<path d="M5672 2830 c-34 -21 -62 -71 -62 -111 0 -81 136 -152 232 -120 53 18
80 52 86 110 4 47 2 53 -30 85 -56 56 -164 74 -226 36z m168 -55 c54 -28 49
-104 -7 -126 -41 -16 -130 8 -156 42 -24 33 -13 77 24 97 29 15 96 9 139 -13z"/>
<path d="M593 2777 c-105 -18 -123 -23 -123 -39 0 -10 6 -21 13 -24 7 -2 76 6
153 18 128 22 139 25 142 46 3 19 -1 22 -30 21 -18 -1 -88 -11 -155 -22z"/>
<path d="M636 2674 c-77 -19 -141 -36 -144 -38 -2 -3 -1 -13 2 -24 7 -19 8
-19 98 4 51 12 94 22 95 20 2 -2 -33 -35 -77 -75 -58 -53 -80 -79 -80 -97 0
-30 7 -30 133 2 186 46 176 42 170 64 -6 24 -10 24 -103 0 -105 -27 -109 -26
-54 23 117 101 127 112 120 135 -4 12 -10 22 -14 21 -4 0 -70 -16 -146 -35z"/>
<path d="M5585 2582 c-3 -3 -5 -13 -5 -23 0 -16 56 -38 164 -65 26 -6 27 -8
10 -14 -10 -4 -63 -15 -116 -25 -63 -12 -99 -23 -99 -32 -1 -7 -2 -18 -3 -24
-1 -9 285 -103 290 -96 1 1 4 11 8 23 6 19 -1 23 -76 43 -46 13 -89 26 -96 30
-8 5 32 17 94 29 105 21 127 32 121 61 -2 15 -281 104 -292 93z"/>
<path d="M685 2411 c-60 -27 -95 -73 -95 -124 0 -47 26 -98 62 -121 21 -14 29
-14 77 2 29 9 55 22 58 28 2 6 -4 31 -14 56 -16 40 -20 45 -40 37 -20 -7 -21
-12 -13 -35 11 -28 1 -43 -27 -44 -17 0 -53 49 -53 72 0 49 67 98 135 98 61 0
95 -58 63 -109 -16 -27 6 -55 32 -41 50 27 44 128 -11 174 -38 32 -113 35
-174 7z"/>
<path d="M5507 2333 c-10 -9 -8 -43 2 -43 5 0 29 -9 54 -20 l46 -20 -21 -48
c-11 -26 -22 -48 -23 -50 -1 -1 -27 9 -57 22 l-55 25 -11 -24 c-11 -23 -7 -25
128 -80 76 -32 142 -58 146 -59 4 0 10 9 15 21 7 19 1 24 -56 48 l-63 27 20
49 c23 54 22 54 102 18 38 -17 42 -17 54 -2 6 9 12 20 12 23 0 6 -268 120
-281 120 -3 0 -9 -3 -12 -7z"/>
<path d="M888 2062 c-137 -76 -160 -104 -133 -170 39 -91 80 -95 222 -21 54
28 101 54 106 58 4 4 1 15 -7 26 -13 17 -18 16 -114 -33 -109 -57 -136 -62
-152 -33 -27 51 -14 65 133 145 60 33 66 39 57 57 -6 10 -14 19 -18 19 -4 -1
-46 -22 -94 -48z"/>
<path d="M5404 2069 c-35 -17 -57 -66 -51 -111 10 -73 99 -140 189 -141 40 -1
53 4 77 27 39 37 47 75 25 121 -21 46 -31 51 -55 29 -17 -15 -18 -19 -4 -34
24 -26 19 -67 -10 -86 -24 -15 -29 -15 -73 1 -57 22 -102 65 -102 98 0 29 28
57 57 57 19 0 33 17 33 41 0 12 -59 10 -86 -2z"/>
<path d="M986 1806 c-66 -46 -121 -87 -123 -93 -2 -5 2 -15 10 -21 10 -9 32 1
96 44 l84 56 -52 -97 c-55 -106 -58 -117 -37 -134 12 -10 38 3 138 70 68 45
125 84 127 86 3 2 -3 11 -12 20 -15 15 -22 13 -94 -35 -42 -28 -79 -49 -81
-47 -2 2 19 47 47 99 46 84 50 97 39 115 -7 12 -15 21 -18 20 -3 -1 -59 -38
-124 -83z"/>
<path d="M5241 1815 c-28 -40 -51 -78 -51 -83 0 -11 233 -172 247 -172 4 1 31
35 60 77 40 58 50 80 41 90 -16 20 -32 16 -50 -14 -10 -16 -28 -41 -41 -57
l-24 -29 -31 19 c-18 10 -32 22 -32 27 0 4 16 31 35 59 34 51 34 52 14 66 -11
8 -22 12 -23 11 -2 -2 -17 -25 -35 -51 -35 -53 -41 -55 -76 -32 l-25 16 40 56
c22 30 40 58 40 61 0 4 -8 11 -19 18 -16 10 -24 3 -70 -62z"/>
<path d="M5099 1624 c-57 -70 -60 -77 -45 -92 14 -15 18 -14 44 11 l29 28 98
-81 c77 -63 101 -78 111 -69 24 20 16 33 -66 99 -117 93 -118 95 -90 125 19
20 21 27 10 40 -7 8 -16 15 -21 15 -4 0 -36 -34 -70 -76z"/>
<path d="M1150 1594 c-137 -110 -132 -105 -115 -128 13 -17 21 -13 132 74 65
52 119 94 121 96 5 3 -22 44 -28 43 -3 0 -52 -39 -110 -85z"/>
<path d="M1221 1486 c-70 -115 -80 -139 -71 -156 6 -11 17 -20 24 -20 21 0
286 128 286 138 0 5 -6 15 -14 21 -11 10 -35 1 -116 -39 -56 -28 -104 -49
-106 -47 -3 3 23 49 56 102 61 97 61 98 42 118 -19 19 -20 18 -101 -117z"/>
<path d="M1381 1320 c-56 -60 -101 -114 -101 -119 0 -5 32 -37 71 -72 66 -59
71 -61 87 -45 16 17 14 20 -35 65 -29 26 -53 51 -53 56 0 5 12 22 27 37 l27
28 48 -46 c40 -40 49 -45 63 -34 22 18 20 25 -31 72 l-46 43 23 28 22 28 31
-28 c69 -64 75 -67 91 -53 8 7 15 15 15 19 0 4 -31 35 -69 69 l-69 62 -101
-110z"/>
<path d="M4856 1369 c-14 -17 -26 -36 -26 -43 0 -22 38 -63 65 -70 21 -5 24
-11 19 -35 -7 -33 17 -85 45 -101 37 -19 81 -12 112 19 16 16 29 39 29 50 0
15 6 21 23 21 31 0 35 5 29 35 -3 20 -9 24 -28 19 -19 -5 -26 0 -40 29 -15 31
-19 34 -35 24 -11 -7 -17 -19 -13 -29 4 -15 1 -16 -28 -7 -18 5 -33 9 -34 9 0
0 1 13 4 29 3 22 -2 36 -21 55 -35 35 -69 33 -101 -5z m72 -21 c17 -17 15 -48
-2 -48 -27 0 -46 12 -46 29 0 32 26 41 48 19z m95 -122 c45 -10 30 -66 -18
-66 -29 0 -45 19 -45 53 0 22 4 27 18 24 9 -3 29 -8 45 -11z"/>
<path d="M1562 1145 c-83 -114 -90 -126 -72 -135 26 -14 25 -15 61 35 54 76
85 50 70 -57 -9 -58 -8 -64 12 -81 18 -16 22 -16 29 -3 5 8 10 42 11 76 l2 60
33 0 c62 0 110 76 78 125 -13 20 -117 105 -128 105 -2 0 -45 -56 -96 -125z
m144 29 c37 -29 43 -54 18 -78 -13 -14 -19 -14 -42 -2 -62 33 -65 38 -40 73
13 18 24 33 26 33 2 0 19 -12 38 -26z"/>
<path d="M4605 1170 c-38 -28 -69 -56 -69 -64 1 -14 148 -231 163 -240 10 -7
160 96 161 110 0 6 -6 17 -13 23 -11 8 -27 1 -72 -30 l-59 -41 -23 28 c-13 16
-23 34 -23 39 0 6 23 25 50 44 55 37 57 42 35 61 -13 11 -24 7 -67 -23 l-51
-35 -19 23 c-10 13 -18 27 -18 32 0 4 25 25 55 46 48 33 54 41 45 58 -6 10
-14 19 -18 19 -4 -1 -38 -23 -77 -50z"/>
<path d="M1839 1071 c-42 -42 -40 -85 7 -139 45 -53 44 -86 -3 -90 -25 -3 -35
2 -48 22 -10 14 -14 33 -10 45 4 14 0 21 -16 26 -44 14 -54 -56 -14 -104 64
-76 166 -53 181 41 5 29 0 41 -35 86 -23 28 -41 58 -41 66 0 20 28 28 53 14
28 -14 38 -29 32 -49 -3 -10 4 -20 20 -27 22 -10 25 -9 31 13 10 40 -9 78 -52
102 -52 30 -70 29 -105 -6z"/>
<path d="M4392 1040 c-58 -36 -68 -104 -26 -188 42 -85 117 -121 182 -88 39
20 52 44 52 95 0 37 -2 41 -25 41 -22 0 -25 -4 -25 -34 0 -66 -56 -87 -102
-38 -58 61 -73 127 -38 162 24 24 38 25 67 5 18 -13 22 -12 38 5 10 11 16 22
14 23 -53 42 -88 47 -137 17z"/>
<path d="M2000 860 c-39 -77 -66 -140 -61 -140 5 0 16 -3 25 -6 12 -4 31 26
83 130 57 115 66 138 53 146 -8 5 -18 10 -22 10 -5 0 -39 -63 -78 -140z"/>
<path d="M2131 941 c-9 -16 -6 -21 19 -31 48 -20 51 -4 -23 -176 l-35 -82 23
-10 c21 -10 24 -7 51 56 15 37 38 91 51 120 l23 52 35 -14 c31 -13 36 -13 44
2 5 9 11 15 14 12 2 -3 11 -47 20 -97 15 -89 15 -95 -3 -149 -21 -60 -19 -74
10 -74 13 0 23 15 38 59 17 49 33 71 94 129 72 70 73 71 48 80 -22 9 -31 5
-76 -40 -58 -56 -55 -58 -69 45 -4 26 -12 47 -17 47 -5 0 -57 20 -115 45 -58
25 -109 45 -114 45 -4 0 -13 -8 -18 -19z"/>
<path d="M4231 951 c-12 -8 -8 -24 23 -96 21 -48 36 -88 34 -90 -2 -2 -41 28
-88 66 -63 51 -90 67 -105 63 -11 -4 -22 -8 -24 -10 -6 -6 114 -277 124 -281
6 -1 16 1 23 5 10 7 5 27 -23 91 -19 46 -35 87 -35 92 0 6 39 -22 86 -62 77
-64 88 -70 110 -61 l23 11 -29 68 c-99 233 -92 221 -119 204z"/>
<path d="M3934 839 l-92 -29 18 -58 c10 -31 30 -96 45 -144 14 -49 31 -88 37
-88 27 0 178 54 178 64 -1 32 -16 35 -79 16 -34 -11 -66 -20 -71 -20 -8 0 -22
56 -18 75 1 6 28 18 60 28 32 10 57 21 55 25 -2 4 -7 15 -10 24 -6 16 -10 16
-67 -4 -34 -11 -63 -18 -65 -16 -3 3 -8 18 -11 35 -6 30 -5 31 60 53 36 12 66
25 65 28 0 4 -3 15 -7 24 -6 15 -16 14 -98 -13z"/>
<path d="M3762 791 c-11 -6 -6 -36 21 -150 19 -78 37 -144 40 -148 4 -3 15 -2
25 3 18 9 17 15 -16 157 -20 81 -40 147 -46 147 -6 0 -17 -4 -24 -9z"/>
<path d="M2693 746 c-62 -52 -81 -184 -36 -245 25 -33 89 -57 128 -47 43 11
82 60 96 120 24 109 -18 185 -107 193 -43 5 -54 2 -81 -21z m116 -43 c66 -55
6 -219 -73 -199 -26 6 -56 51 -56 83 0 35 21 94 41 114 24 24 60 24 88 2z"/>
<path d="M3573 755 c-43 -18 -63 -61 -63 -132 1 -128 77 -200 174 -163 27 10
56 56 56 90 0 15 -6 20 -25 20 -18 0 -25 -5 -25 -18 0 -24 -31 -52 -58 -52
-43 0 -72 52 -72 129 0 76 44 109 93 71 28 -22 36 -24 56 -11 29 19 -38 82
-86 81 -10 -1 -32 -7 -50 -15z"/>
<path d="M2936 628 c-4 -62 -9 -132 -13 -155 -5 -41 -4 -43 20 -43 27 0 37 27
37 98 l0 35 54 -6 c51 -5 54 -4 58 18 4 19 0 24 -25 29 -16 3 -40 6 -53 6 -21
0 -24 5 -24 40 l0 39 65 -6 c64 -6 65 -6 65 19 0 24 -4 25 -67 31 -121 12
-110 23 -117 -105z"/>
<path d="M3309 729 c-28 -10 -49 -46 -49 -83 0 -38 34 -70 91 -86 59 -17 80
-40 63 -67 -21 -33 -88 -28 -99 7 -4 13 -15 20 -32 20 -22 0 -24 -3 -19 -27
18 -75 121 -100 177 -44 60 60 28 141 -65 164 -56 15 -77 37 -57 61 19 22 58
20 73 -4 15 -23 58 -27 58 -6 0 59 -70 91 -141 65z"/>
</g>
</svg>
