<?xml version="1.0" standalone="no"?>
<!DOCTYPE svg PUBLIC "-//W3C//DTD SVG 20010904//EN"
 "http://www.w3.org/TR/2001/REC-SVG-20010904/DTD/svg10.dtd">
<svg version="1.0" xmlns="http://www.w3.org/2000/svg"
 width="356.000000pt" height="95.000000pt" viewBox="0 0 356.000000 95.000000"
 preserveAspectRatio="xMidYMid meet">

<g transform="translate(0.000000,95.000000) scale(0.100000,-0.100000)"
fill="#000000" stroke="none">
<path d="M170 850 c0 -5 15 -44 34 -86 l34 -77 -53 -52 c-78 -76 -100 -159
-70 -261 31 -107 129 -179 240 -176 33 0 68 2 78 4 14 2 27 -19 61 -97 24 -55
49 -101 55 -103 13 -4 14 4 2 27 -21 38 55 154 109 166 42 9 64 38 55 72 -5
15 -9 42 -10 58 -1 17 -5 39 -9 51 -4 14 -1 26 9 34 23 19 19 30 -28 80 -27
27 -49 62 -56 88 -8 29 -30 62 -64 97 -77 79 -156 98 -292 70 -29 -6 -31 -4
-54 54 -21 54 -41 79 -41 51z m308 -139 c63 -33 132 -121 132 -170 0 -16 16
-39 45 -67 40 -37 43 -43 29 -55 -12 -9 -14 -22 -8 -48 4 -20 8 -49 10 -66 1
-16 4 -39 6 -50 2 -14 -7 -24 -37 -38 -50 -24 -90 -61 -105 -98 -7 -16 -15
-29 -19 -29 -5 0 -261 568 -279 620 -5 14 79 29 136 24 30 -2 70 -13 90 -23z
m-282 -109 c-8 -16 -20 -50 -27 -76 -10 -42 -31 -67 -44 -54 -10 9 17 78 45
117 35 48 47 54 26 13z m84 -13 c12 -23 20 -42 18 -44 -7 -6 -47 -25 -52 -25
-3 0 -6 11 -6 24 0 27 11 86 16 86 2 0 13 -18 24 -41z m-64 -75 c-3 -8 -12
-14 -20 -14 -16 0 -15 7 7 65 l12 30 3 -33 c2 -19 1 -40 -2 -48z m109 -24 c19
-38 20 -35 -16 -50 -34 -14 -44 -8 -54 32 -6 23 -3 29 16 37 35 14 37 14 54
-19z m-76 -71 c1 -3 -10 -11 -24 -17 -23 -11 -25 -9 -34 25 -6 20 -9 38 -8 38
33 24 42 23 54 -8 6 -18 12 -35 12 -38z m-80 4 c8 -28 7 -39 -2 -45 -23 -15
-35 -8 -41 24 -5 25 -2 36 11 45 22 17 21 18 32 -24z m196 -23 c8 -16 15 -31
15 -34 0 -5 -62 -28 -65 -24 -1 2 -9 14 -18 28 -23 33 -22 37 11 48 39 15 40
15 57 -18z m-85 -41 c11 -26 11 -32 -1 -40 -21 -13 -26 -11 -49 18 -20 26 -20
28 -4 40 27 20 40 16 54 -18z m-70 -28 c20 -30 20 -30 1 -40 -16 -9 -23 -6
-40 15 -24 31 -26 40 -8 47 22 9 25 8 47 -22z m190 -10 c19 -36 30 -71 21 -71
-4 0 -25 16 -47 35 -32 29 -36 36 -24 45 23 15 38 12 50 -9z m-50 -46 l34 -35
-47 16 c-52 18 -67 32 -46 45 20 13 22 12 59 -26z m-75 -11 c14 -9 42 -23 63
-31 l37 -14 -52 4 c-53 4 -108 31 -98 47 9 14 22 12 50 -6z"/>
<path d="M889 677 c-50 -39 -48 -115 4 -147 40 -25 64 -25 104 0 51 30 56 97
13 140 -23 23 -95 27 -121 7z m114 -39 c17 -23 18 -31 8 -57 -16 -38 -60 -57
-93 -40 -30 16 -38 28 -38 63 0 67 82 90 123 34z"/>
<path d="M2298 663 c-13 -32 -11 -133 3 -147 5 -6 9 10 9 42 0 40 4 52 15 52
8 0 15 5 15 10 0 6 -7 10 -16 10 -11 0 -14 5 -10 16 3 9 6 18 6 20 0 2 7 4 15
4 8 0 15 5 15 10 0 23 -41 9 -52 -17z"/>
<path d="M1525 670 c-3 -5 1 -10 9 -10 9 0 16 5 16 10 0 6 -4 10 -9 10 -6 0
-13 -4 -16 -10z"/>
<path d="M1890 670 c0 -5 5 -10 10 -10 6 0 10 5 10 10 0 6 -4 10 -10 10 -5 0
-10 -4 -10 -10z"/>
<path d="M1806 631 c-11 -12 -14 -21 -8 -21 7 0 12 -17 12 -44 0 -36 4 -46 20
-51 21 -7 40 0 40 15 0 4 -9 6 -20 3 -18 -5 -20 0 -20 36 0 30 4 41 15 41 8 0
15 5 15 10 0 6 -6 10 -14 10 -8 0 -16 5 -18 11 -2 6 -12 1 -22 -10z"/>
<path d="M1070 576 c0 -69 17 -82 22 -18 5 51 1 72 -13 72 -5 0 -9 -24 -9 -54z"/>
<path d="M1106 621 c-3 -5 5 -11 19 -13 17 -4 25 -1 25 8 0 15 -36 19 -44 5z"/>
<path d="M1182 618 c-14 -14 -16 -40 -3 -53 6 -6 4 -22 -6 -42 -23 -48 -12
-65 39 -61 36 2 44 7 46 26 3 18 -3 25 -27 33 -32 11 -42 29 -17 29 18 0 32
18 40 53 6 25 4 27 -27 27 -18 0 -38 -5 -45 -12z m48 -28 c0 -13 -7 -20 -20
-20 -13 0 -20 7 -20 20 0 13 7 20 20 20 13 0 20 -7 20 -20z m5 -100 c0 -18
-33 -26 -47 -12 -6 6 -7 15 -3 22 10 16 50 8 50 -10z"/>
<path d="M1287 623 c-14 -13 -6 -20 18 -15 34 6 33 -21 -1 -36 -18 -9 -24 -19
-22 -35 3 -19 9 -22 43 -22 40 0 40 0 37 34 -6 58 -19 81 -45 81 -13 0 -27 -3
-30 -7z m43 -73 c0 -11 -7 -20 -15 -20 -15 0 -21 21 -8 33 12 13 23 7 23 -13z"/>
<path d="M1392 574 c4 -66 22 -76 26 -14 3 46 15 62 39 53 8 -3 13 -22 13 -54
0 -27 5 -49 10 -49 12 0 13 89 2 107 -4 6 -27 12 -50 11 l-43 0 3 -54z"/>
<path d="M1530 569 c0 -37 4 -58 10 -54 6 3 10 31 10 61 0 30 -4 54 -10 54 -6
0 -10 -27 -10 -61z"/>
<path d="M1570 620 c0 -5 14 -10 30 -10 l30 0 -23 -37 c-13 -21 -27 -44 -31
-50 -5 -10 6 -13 43 -13 28 0 51 5 51 10 0 6 -13 10 -30 10 -16 0 -30 2 -30 6
0 3 11 22 25 42 14 20 25 40 25 44 0 5 -20 8 -45 8 -25 0 -45 -4 -45 -10z"/>
<path d="M1687 624 c-15 -16 -6 -23 23 -17 23 4 30 2 30 -11 0 -8 -11 -18 -24
-22 -54 -13 -39 -62 18 -60 31 1 66 16 38 16 -6 0 -12 21 -14 48 -3 44 -5 47
-33 50 -17 2 -34 0 -38 -4z m53 -74 c0 -19 -20 -27 -33 -13 -8 7 11 33 24 33
5 0 9 -9 9 -20z"/>
<path d="M1890 570 c0 -33 4 -60 10 -60 6 0 10 27 10 60 0 33 -4 60 -10 60 -6
0 -10 -27 -10 -60z"/>
<path d="M1957 612 c-36 -39 -7 -102 45 -102 25 0 58 36 58 63 0 50 -70 76
-103 39z m71 -14 c32 -32 -18 -87 -53 -58 -28 23 -12 70 25 70 9 0 21 -5 28
-12z"/>
<path d="M2090 569 c0 -33 4 -59 10 -59 6 0 10 19 10 43 0 46 14 69 36 60 9
-3 14 -21 14 -48 0 -24 5 -47 11 -50 7 -5 9 13 7 52 l-3 58 -42 1 -43 2 0 -59z"/>
<path d="M2367 612 c-41 -45 -1 -111 57 -96 46 11 60 60 26 94 -25 25 -62 26
-83 2z m73 -17 c27 -32 -23 -82 -55 -55 -15 13 -20 51 -8 63 12 12 50 7 63 -8z"/>
<path d="M2500 570 c0 -71 18 -81 22 -12 3 43 5 47 31 50 15 2 27 8 27 13 0
13 -34 11 -48 -3 -9 -9 -12 -9 -12 0 0 7 -4 12 -10 12 -6 0 -10 -27 -10 -60z"/>
<path d="M860 365 c0 -50 4 -85 10 -85 6 0 10 16 10 35 l0 35 50 0 50 0 0 -35
c0 -24 5 -35 15 -35 12 0 15 16 15 85 0 69 -3 85 -15 85 -10 0 -15 -11 -15
-35 l0 -35 -50 0 -50 0 0 35 c0 19 -4 35 -10 35 -6 0 -10 -35 -10 -85z"/>
<path d="M1690 365 l0 -85 48 0 c26 0 53 5 60 12 17 17 15 55 -4 66 -13 7 -14
13 -5 31 20 37 -2 61 -54 61 l-45 0 0 -85z m75 40 c0 -13 -8 -21 -22 -23 -19
-3 -23 1 -23 23 0 22 4 26 23 23 14 -2 22 -10 22 -23z m10 -59 c27 -19 13 -46
-25 -46 -27 0 -30 3 -30 30 0 34 22 40 55 16z"/>
<path d="M2310 365 c0 -50 4 -85 10 -85 6 0 10 29 10 68 l1 67 31 -34 31 -35
29 34 28 34 0 -67 c0 -38 4 -67 10 -67 6 0 10 35 10 85 0 47 -4 85 -9 85 -5 0
-23 -16 -39 -36 l-30 -36 -27 36 c-44 58 -55 49 -55 -49z"/>
<path d="M2050 430 c0 -5 5 -10 10 -10 6 0 10 5 10 10 0 6 -4 10 -10 10 -5 0
-10 -4 -10 -10z"/>
<path d="M2880 430 c0 -5 5 -10 10 -10 6 0 10 5 10 10 0 6 -4 10 -10 10 -5 0
-10 -4 -10 -10z"/>
<path d="M1050 340 c0 -52 21 -78 50 -60 7 4 19 6 27 3 10 -4 13 8 13 51 0 31
-4 56 -10 56 -5 0 -10 -20 -10 -44 0 -31 -5 -46 -16 -50 -26 -10 -34 2 -34 50
0 24 -4 44 -10 44 -5 0 -10 -22 -10 -50z"/>
<path d="M1170 334 c0 -41 4 -54 15 -54 11 0 15 12 15 44 0 25 5 48 10 51 20
12 40 -17 40 -56 0 -22 5 -39 10 -39 6 0 10 20 10 44 0 31 5 46 16 50 26 10
34 -2 34 -50 0 -24 5 -44 11 -44 6 0 9 21 7 53 l-3 52 -82 1 -83 2 0 -54z"/>
<path d="M1377 383 c-14 -13 -6 -20 17 -16 36 7 41 -14 6 -32 -18 -9 -30 -23
-30 -35 0 -21 1 -21 52 -23 32 -1 33 0 30 39 -5 63 -11 74 -41 74 -15 0 -31
-3 -34 -7z m53 -68 c0 -16 -27 -32 -37 -22 -3 4 -3 13 0 22 8 20 37 20 37 0z"/>
<path d="M1490 334 c0 -30 5 -54 10 -54 6 0 10 20 10 44 0 31 5 46 16 50 26
10 34 -2 34 -50 0 -24 5 -44 11 -44 6 0 9 21 7 53 l-3 52 -42 1 -43 2 0 -54z"/>
<path d="M1840 335 c0 -65 17 -74 22 -12 3 38 6 42 31 45 15 2 27 8 27 13 0
13 -34 11 -48 -3 -9 -9 -12 -9 -12 0 0 7 -4 12 -10 12 -5 0 -10 -25 -10 -55z"/>
<path d="M1937 384 c-14 -15 -6 -20 23 -16 21 3 30 0 30 -10 0 -7 -13 -19 -30
-25 -50 -19 -35 -58 22 -56 51 2 54 3 41 11 -6 4 -13 28 -15 52 -3 42 -5 45
-33 48 -17 2 -34 0 -38 -4z m53 -74 c0 -13 -7 -20 -20 -20 -22 0 -28 25 -7 33
22 10 27 7 27 -13z"/>
<path d="M2050 335 c0 -30 5 -55 10 -55 6 0 10 25 10 55 0 30 -4 55 -10 55 -5
0 -10 -25 -10 -55z"/>
<path d="M2110 334 c0 -30 5 -54 10 -54 6 0 10 20 10 44 0 31 5 46 16 50 26
10 34 -2 34 -50 0 -24 5 -44 11 -44 6 0 9 21 7 53 l-3 52 -42 1 -43 2 0 -54z"/>
<path d="M2507 384 c-14 -15 -6 -20 23 -16 37 5 43 -23 6 -32 -25 -6 -42 -34
-29 -47 8 -7 52 -12 83 -10 11 1 12 4 3 9 -6 4 -13 28 -15 52 -3 42 -5 45 -33
48 -17 2 -34 0 -38 -4z m53 -74 c0 -19 -20 -27 -33 -13 -8 7 11 33 24 33 5 0
9 -9 9 -20z"/>
<path d="M2620 305 c0 -50 4 -85 10 -85 6 0 10 13 10 29 0 24 4 29 25 29 36
-1 55 20 55 58 0 38 -21 54 -69 54 l-31 0 0 -85z m78 34 c3 -29 -20 -54 -43
-45 -9 3 -15 18 -15 41 0 34 2 36 28 33 21 -2 28 -9 30 -29z"/>
<path d="M2750 305 c0 -50 4 -85 10 -85 6 0 10 13 10 29 0 24 4 29 25 29 36
-1 55 20 55 58 0 38 -21 54 -69 54 l-31 0 0 -85z m78 34 c3 -29 -20 -54 -43
-45 -9 3 -15 18 -15 41 0 34 2 36 28 33 21 -2 28 -9 30 -29z"/>
<path d="M2880 335 c0 -30 5 -55 10 -55 6 0 10 25 10 55 0 30 -4 55 -10 55 -5
0 -10 -25 -10 -55z"/>
<path d="M2940 334 c0 -30 5 -54 10 -54 6 0 10 20 10 44 0 31 5 46 16 50 26
10 34 -2 34 -50 0 -24 5 -44 11 -44 6 0 9 21 7 53 l-3 52 -42 1 -43 2 0 -54z"/>
<path d="M3070 375 c-7 -8 -9 -23 -4 -37 12 -35 10 -52 -6 -65 -23 -19 0 -47
42 -51 62 -5 77 50 17 63 -30 7 -41 25 -15 25 22 0 48 31 41 48 -3 8 0 19 7
24 8 5 -3 8 -28 8 -24 0 -47 -6 -54 -15z m58 -22 c5 -17 -26 -29 -40 -15 -6 6
-7 15 -3 22 9 14 37 9 43 -7z m8 -94 c7 -11 -12 -29 -31 -29 -19 0 -38 18 -31
29 4 6 18 11 31 11 13 0 27 -5 31 -11z"/>
<path d="M881 127 c-16 -40 -24 -77 -17 -77 3 0 10 18 16 41 12 45 16 46 24 7
2 -15 9 -35 15 -45 9 -15 10 -12 5 12 -4 17 -12 44 -19 60 l-13 30 -11 -28z"/>
<path d="M989 133 c-1 -10 -2 -31 -3 -48 -1 -43 -31 -41 -31 2 0 17 -3 29 -7
26 -11 -6 -10 -45 1 -62 5 -8 16 -11 30 -6 18 5 21 14 21 56 0 46 -8 70 -11
32z"/>
<path d="M1504 95 c1 -46 3 -50 26 -50 23 0 25 3 26 53 l1 52 -4 -50 c-3 -41
-7 -50 -23 -50 -15 0 -20 9 -23 48 l-4 47 1 -50z"/>
<path d="M1699 133 c-1 -10 0 -33 1 -50 1 -25 -3 -33 -15 -33 -14 0 -16 7 -13
35 2 19 0 35 -5 35 -4 0 -7 -17 -5 -37 2 -31 7 -39 26 -41 21 -3 22 0 22 52 0
31 -2 56 -5 56 -3 0 -5 -8 -6 -17z"/>
<path d="M2119 133 c0 -10 -2 -31 -2 -48 -2 -37 -28 -41 -38 -5 -6 22 -7 23
-8 4 -1 -25 16 -41 42 -41 14 0 17 10 17 54 0 29 -2 53 -5 53 -3 0 -5 -8 -6
-17z"/>
<path d="M2438 133 c-2 -10 -1 -36 2 -58 6 -39 6 -38 11 18 4 53 -4 78 -13 40z"/>
<path d="M2550 100 c0 -29 2 -51 5 -48 8 7 9 87 2 95 -4 3 -7 -18 -7 -47z"/>
<path d="M2723 95 c0 -33 2 -45 4 -27 2 18 2 45 0 60 -2 15 -4 0 -4 -33z"/>
<path d="M2777 124 c-2 -15 -1 -38 3 -53 7 -21 8 -16 9 27 1 56 -4 67 -12 26z"/>
<path d="M3160 96 c0 -52 2 -56 23 -55 15 1 17 3 5 6 -12 3 -16 16 -16 49 0
37 3 44 19 44 21 0 26 -24 8 -36 -8 -5 -7 -10 4 -16 10 -5 14 -16 11 -26 -5
-14 -4 -14 4 -2 6 8 8 18 5 24 -3 5 -6 21 -7 35 -1 21 -7 27 -28 29 -28 3 -28
2 -28 -52z"/>
<path d="M1900 97 c0 -25 3 -48 8 -50 8 -6 7 82 -2 90 -3 4 -6 -14 -6 -40z"/>
<path d="M2511 98 c0 -26 3 -49 7 -52 4 -2 6 12 4 32 -6 62 -10 69 -11 20z"/>
<path d="M1012 115 c0 -5 5 -26 13 -45 l13 -35 11 28 c6 16 11 34 10 40 0 7
-5 1 -10 -13 l-11 -25 -13 30 c-7 17 -13 26 -13 20z"/>
<path d="M1110 109 c0 -6 -10 -19 -22 -28 -25 -21 -17 -42 15 -39 19 2 22 7
19 40 -4 34 -12 54 -12 27z m0 -44 c0 -8 -7 -15 -15 -15 -16 0 -20 12 -8 23
11 12 23 8 23 -8z"/>
<path d="M1140 85 c0 -45 7 -45 12 0 2 19 0 35 -4 35 -4 0 -8 -16 -8 -35z"/>
<path d="M1214 105 c-10 -26 5 -67 23 -63 9 2 18 10 20 18 4 12 3 13 -5 1 -15
-21 -34 -2 -30 30 5 31 1 38 -8 14z"/>
<path d="M1245 110 c3 -5 8 -10 11 -10 2 0 4 5 4 10 0 6 -5 10 -11 10 -5 0 -7
-4 -4 -10z"/>
<path d="M1283 80 c0 -25 2 -35 4 -22 2 12 2 32 0 45 -2 12 -4 2 -4 -23z"/>
<path d="M1320 109 c0 -5 5 -7 10 -4 6 3 10 8 10 11 0 2 -4 4 -10 4 -5 0 -10
-5 -10 -11z"/>
<path d="M1359 82 c5 -34 6 -35 9 -8 2 16 0 32 -5 37 -5 5 -7 -7 -4 -29z"/>
<path d="M1390 109 c0 -5 5 -7 10 -4 6 3 10 8 10 11 0 2 -4 4 -10 4 -5 0 -10
-5 -10 -11z"/>
<path d="M1428 91 c4 -32 -15 -51 -30 -30 -8 12 -9 11 -5 -1 2 -8 12 -14 21
-13 11 0 15 -4 12 -14 -3 -8 -1 -11 4 -8 12 7 14 95 2 95 -5 0 -7 -13 -4 -29z"/>
<path d="M1590 85 c0 -45 7 -45 12 0 2 19 0 35 -4 35 -4 0 -8 -16 -8 -35z"/>
<path d="M1628 80 c2 -22 6 -40 8 -40 2 0 4 18 4 40 0 22 -3 40 -8 40 -4 0 -6
-18 -4 -40z"/>
<path d="M1732 83 c2 -30 7 -38 22 -38 11 0 20 6 22 13 1 7 0 8 -3 2 -7 -16
-33 -12 -33 5 0 8 9 15 20 15 21 0 28 24 10 35 -6 3 -7 -1 -4 -9 4 -11 0 -16
-11 -16 -11 0 -15 5 -11 15 3 8 1 15 -5 15 -6 0 -9 -16 -7 -37z"/>
<path d="M1800 105 c0 -8 2 -15 4 -15 2 0 6 7 10 15 3 8 1 15 -4 15 -6 0 -10
-7 -10 -15z"/>
<path d="M1841 108 c-1 -10 8 -22 19 -28 23 -12 17 -35 -7 -26 -8 3 -11 1 -8
-4 8 -14 32 -13 41 2 4 6 -2 18 -13 27 -11 9 -22 23 -26 31 -4 12 -6 11 -6 -2z"/>
<path d="M1970 109 c0 -6 -8 -18 -18 -27 -9 -10 -13 -14 -8 -9 15 11 26 8 26
-7 0 -8 -8 -17 -17 -19 -11 -3 -8 -4 7 -4 23 1 25 4 22 39 -4 34 -12 54 -12
27z"/>
<path d="M2000 85 c0 -45 7 -45 12 0 2 19 0 35 -4 35 -4 0 -8 -16 -8 -35z"/>
<path d="M2153 80 c0 -25 2 -35 4 -22 2 12 2 32 0 45 -2 12 -4 2 -4 -23z"/>
<path d="M2229 82 c5 -34 6 -35 9 -8 2 16 0 32 -5 37 -5 5 -7 -7 -4 -29z"/>
<path d="M2256 105 c-3 -9 -6 -22 -5 -28 0 -7 5 -1 10 12 5 13 8 26 5 28 -2 2
-6 -3 -10 -12z"/>
<path d="M2295 88 c0 -25 -4 -33 -17 -32 -10 1 -15 -3 -12 -8 3 -5 13 -7 21
-4 11 5 13 2 9 -9 -3 -9 -2 -13 4 -10 12 7 14 95 2 95 -4 0 -7 -15 -7 -32z"/>
<path d="M2364 95 c-10 -41 35 -77 50 -39 8 22 8 52 -2 57 -4 3 -7 -9 -7 -26
0 -22 -5 -32 -15 -32 -11 0 -15 10 -14 33 2 38 -3 42 -12 7z"/>
<path d="M2588 80 c2 -22 6 -40 8 -40 2 0 4 18 4 40 0 22 -3 40 -8 40 -4 0 -6
-18 -4 -40z"/>
<path d="M2654 108 c4 -14 0 -18 -19 -18 -14 0 -25 -4 -25 -9 0 -9 48 -2 54 8
3 4 0 13 -6 21 -8 12 -9 12 -4 -2z"/>
<path d="M2814 86 c1 -26 6 -41 16 -43 10 -3 11 -2 3 4 -6 4 -13 24 -16 43 -4
34 -4 33 -3 -4z"/>
<path d="M2853 80 c0 -25 2 -35 4 -22 2 12 2 32 0 45 -2 12 -4 2 -4 -23z"/>
<path d="M2880 80 c0 -22 2 -40 4 -40 2 0 6 18 8 40 2 22 0 40 -4 40 -5 0 -8
-18 -8 -40z"/>
<path d="M2918 80 c2 -22 5 -40 7 -40 2 0 5 18 7 40 2 24 -1 40 -7 40 -6 0 -9
-16 -7 -40z"/>
<path d="M2958 80 c2 -22 6 -40 8 -40 2 0 4 18 4 40 0 22 -3 40 -8 40 -4 0 -6
-18 -4 -40z"/>
<path d="M3020 107 c0 -7 -9 -18 -20 -25 -25 -15 -16 -42 14 -40 18 2 21 7 18
40 -4 35 -12 53 -12 25z m0 -42 c0 -8 -4 -15 -9 -15 -13 0 -22 16 -14 24 11
11 23 6 23 -9z"/>
<path d="M3050 85 c0 -45 7 -45 12 0 2 19 0 35 -4 35 -4 0 -8 -16 -8 -35z"/>
<path d="M3250 109 c0 -5 5 -7 10 -4 6 3 10 8 10 11 0 2 -4 4 -10 4 -5 0 -10
-5 -10 -11z"/>
<path d="M3320 109 c0 -6 -10 -19 -22 -28 -25 -21 -17 -42 15 -39 19 2 22 7
19 40 -4 34 -12 54 -12 27z m0 -44 c0 -8 -7 -15 -15 -15 -16 0 -20 12 -8 23
11 12 23 8 23 -8z"/>
<path d="M3390 80 c0 -22 2 -40 4 -40 2 0 6 18 8 40 2 22 0 40 -4 40 -5 0 -8
-18 -8 -40z"/>
<path d="M3428 80 c2 -22 6 -40 8 -40 2 0 4 18 4 40 0 22 -3 40 -8 40 -4 0 -6
-18 -4 -40z"/>
<path d="M2630 46 c7 -7 13 -7 20 0 6 6 3 10 -10 10 -13 0 -16 -4 -10 -10z"/>
</g>
</svg>
